<?xml version="1.0" standalone="no"?>
<!DOCTYPE svg PUBLIC "-//W3C//DTD SVG 1.1//EN" "http://www.w3.org/Graphics/SVG/1.1/DTD/svg11.dtd" >
<svg xmlns="http://www.w3.org/2000/svg">
<metadata>Generated by IcoMoon</metadata>
<defs>
<font id="eleganticons" horiz-adv-x="1024">
<font-face units-per-em="1024" ascent="960" descent="-64" />
<missing-glyph horiz-adv-x="1024" />
<glyph unicode="&#x20;" horiz-adv-x="512" d="" />
<glyph unicode="&#xe900;" glyph-name="x3-grid" d="M219.427 960h-146.286c-40.373 0-73.142-32.769-73.142-73.142v-146.286c0-40.375 32.769-73.142 73.142-73.142h146.286c40.375 0 73.142 32.769 73.142 73.142v146.286c0.002 40.373-32.767 73.142-73.142 73.142zM585.143 960h-146.286c-40.375 0-73.142-32.769-73.142-73.142v-146.286c0-40.375 32.769-73.142 73.142-73.142h146.286c40.375 0 73.142 32.769 73.142 73.142v146.286c0 40.373-32.767 73.142-73.142 73.142zM950.856 960h-146.286c-40.375 0-73.144-32.769-73.144-73.142v-146.286c0-40.375 32.769-73.142 73.144-73.142h146.286c40.375 0 73.144 32.769 73.144 73.142v146.286c0 40.373-32.769 73.142-73.144 73.142zM219.427 594.287h-146.286c-40.373 0-73.142-32.769-73.142-73.144v-146.286c0-40.375 32.769-73.142 73.142-73.142h146.286c40.375 0 73.142 32.769 73.142 73.142v146.286c0.002 40.375-32.767 73.144-73.142 73.144zM585.143 594.287h-146.286c-40.375 0-73.142-32.769-73.142-73.142v-146.286c0-40.375 32.769-73.142 73.142-73.142h146.286c40.375 0 73.142 32.769 73.142 73.142v146.286c0 40.373-32.767 73.142-73.142 73.142zM950.856 594.287h-146.286c-40.375 0-73.144-32.769-73.144-73.142v-146.286c0-40.375 32.769-73.142 73.144-73.142h146.286c40.375 0 73.144 32.769 73.144 73.142v146.286c0 40.373-32.769 73.142-73.144 73.142zM219.427 228.571h-146.286c-40.373 0-73.142-32.767-73.142-73.142v-146.286c0-40.375 32.769-73.144 73.142-73.144h146.286c40.375 0 73.142 32.769 73.142 73.144v146.286c0.002 40.375-32.767 73.142-73.142 73.142zM585.143 228.571h-146.286c-40.375 0-73.142-32.769-73.142-73.144v-146.286c0-40.375 32.769-73.144 73.142-73.144h146.286c40.375 0 73.142 32.769 73.142 73.144v146.286c0 40.377-32.767 73.144-73.142 73.144zM950.856 228.571h-146.286c-40.375 0-73.144-32.769-73.144-73.144v-146.286c0-40.375 32.769-73.144 73.144-73.144h146.286c40.375 0 73.144 32.769 73.144 73.144v146.286c0 40.377-32.769 73.144-73.144 73.144z" />
<glyph unicode="&#xe901;" glyph-name="access-denied" d="M611.942 448.019l391.488 391.348c27.426 27.57 27.426 72.39 0 99.956-27.57 27.57-72.53 27.57-99.956 0l-391.488-391.348-391.353 391.348c-27.57 27.57-72.39 27.57-99.956 0s-27.57-72.39 0-99.956l391.348-391.348-391.348-391.488c-27.57-27.426-27.57-72.39 0-99.956 27.57-27.426 72.39-27.426 99.956 0l391.348 391.488 391.488-391.488c27.426-27.426 72.39-27.426 99.956 0 27.426 27.57 27.426 72.53 0 99.956l-391.483 391.488z" />
<glyph unicode="&#xe902;" glyph-name="add-circular-mini-button" d="M512.001 960c-282.761 0-512.001-229.24-512.001-512.001 0-282.829 229.24-512.001 512.001-512.001 282.829 0 512.001 229.172 512.001 512.001-0.002 282.761-229.174 512.001-512.001 512.001zM785.068 413.866h-238.934v-238.934c0-18.773-15.36-34.133-34.133-34.133-18.842 0-34.133 15.36-34.133 34.133v238.934h-238.934c-18.842 0-34.133 15.36-34.133 34.133 0 18.842 15.291 34.133 34.133 34.133h238.934v238.934c0 18.842 15.291 34.133 34.133 34.133 18.773 0 34.133-15.291 34.133-34.133v-238.934h238.934c18.773 0 34.133-15.291 34.133-34.133 0-18.773-15.36-34.133-34.133-34.133z" />
<glyph unicode="&#xe903;" glyph-name="add-folder-silhouette" d="M955.734 891.734h-273.067c-37.683 0-68.266-30.584-68.266-68.266 0 0-8.875-62.602-68.266-68.266h-477.87c-37.681-0.002-68.266-30.587-68.266-68.27v-614.4c0-37.683 30.584-68.268 68.266-68.268h887.467c37.683 0 68.266 30.584 68.266 68.268v750.933c0.002 37.683-30.58 68.268-68.264 68.268zM716.8 345.6h-170.666v-170.666c0-18.773-15.36-34.133-34.133-34.133-18.842 0-34.133 15.36-34.133 34.133v170.666h-170.666c-18.842 0-34.133 15.36-34.133 34.133s15.291 34.133 34.133 34.133h170.666v170.666c0 18.842 15.291 34.133 34.133 34.133 18.773 0 34.133-15.291 34.133-34.133v-170.666h170.666c18.773 0 34.133-15.36 34.133-34.133s-15.36-34.133-34.133-34.133z" />
<glyph unicode="&#xe904;" glyph-name="archive-box" d="M959.999 896.001h-896c-35.326 0-63.999-28.673-63.999-64.001v-128h1024v128c0 35.328-28.673 64.001-64.001 64.001zM63.999 64c0-35.328 28.673-63.999 63.999-63.999h768c35.328 0 63.999 28.673 63.999 63.999v576.001h-895.998v-576.001zM384 512.001h256c35.328 0 64.001-28.673 64.001-63.999s-28.673-63.999-64.001-63.999h-256c-35.328 0-63.999 28.673-63.999 63.999s28.671 63.999 63.999 63.999z" />
<glyph unicode="&#xe905;" glyph-name="arrow-in-circle-point-to-up" d="M512 959.965c-282.776 0-512-229.155-512-512s229.293-511.931 512-511.931 512 229.224 512 512-229.224 511.931-512 511.931zM512 4.604c-244.514 0-443.431 198.848-443.431 443.5s198.915 443.431 443.431 443.431 443.431-198.986 443.431-443.431-198.848-443.5-443.431-443.5zM534.079 611.503c-6.72 6.72-15.497 9.941-24.342 9.941s-17.622-3.223-24.342-9.941l-222.366-222.368c-13.372-13.372-13.372-35.108 0-48.477 13.372-13.372 35.108-13.372 48.477 0l198.231 198.231 198.231-198.231c13.372-13.372 35.108-13.372 48.477 0 13.372 13.372 13.372 35.108 0 48.477l-222.366 222.368z" />
<glyph unicode="&#xe906;" glyph-name="arrow-left-and-right" d="M671.999 384.321h-562.88l73.407 73.409c12.481 12.481 12.481 32.769 0 45.248-12.481 12.481-32.769 12.481-45.248 0l-127.936-127.938c-6.271-6.273-9.344-14.464-9.344-22.72s3.073-16.448 9.344-22.72l123.264-123.264c12.543-12.481 32.769-12.481 45.248 0 12.481 12.481 12.481 32.769 0 45.248l-68.735 68.735h562.88c17.6 0 31.999 14.4 31.999 31.999s-14.4 32.004-31.999 32.004zM1014.654 566.401l-123.264 123.264c-12.481 12.481-32.769 12.481-45.248 0s-12.481-32.769 0-45.248l68.735-68.735h-562.878c-17.664 0-31.999-14.335-31.999-31.999s14.335-31.999 31.999-31.999h562.88l-73.345-73.407c-12.481-12.481-12.481-32.769 0-45.248 12.416-12.416 32.769-12.416 45.248 0l127.871 127.936c6.273 6.273 9.344 14.464 9.344 22.72 0.002 8.252-3.071 16.444-9.344 22.716z" />
<glyph unicode="&#xe907;" glyph-name="arrow-left-in-circle" d="M512.001 960c-282.761 0-512.001-229.24-512.001-512.001 0-282.829 229.24-512.001 512.001-512.001 282.829 0 512.001 229.172 512.001 512.001-0.002 282.761-229.174 512.001-512.001 512.001zM853.334 413.866h-532.003l146.5-146.5c13.313-13.244 13.313-34.953 0-48.264-13.313-13.244-34.953-13.244-48.264 0l-205.003 205.141-7.099 10.718-2.663 12.903v0.137l2.663 13.038 7.372 11.128 204.799 204.799c13.313 13.313 34.953 13.313 48.264 0 13.313-13.313 13.313-34.953 0-48.264l-146.569-146.569h532.003c18.773 0 34.133-15.291 34.133-34.133 0-18.775-15.36-34.135-34.133-34.135z" />
<glyph unicode="&#xe908;" glyph-name="arrow-pointing-to-up" d="M113.957 442.469l397.924 352.101 397.924-352.101c26.031-26.031 68.536-26.031 94.433 0 26.298 26.031 26.298 68.268 0.267 94.433l-444.407 393.009c-13.281 13.281-30.682 19.658-48.079 19.391-17.531 0.267-34.932-6.11-48.213-19.391l-444.281-393.009c-26.031-26.031-26.031-68.402 0-94.433s68.402-26.035 94.433 0zM560.098 453.623c-13.281 13.281-30.682 19.658-48.079 19.391-17.531 0.267-34.932-6.11-48.213-19.391l-444.281-392.876c-26.031-26.165-26.031-68.536 0-94.433 26.031-26.165 68.402-26.165 94.433 0l397.924 351.838 397.924-351.838c26.031-26.165 68.536-26.165 94.433 0 26.031 25.901 26.031 68.268 0 94.433l-444.139 392.876z" />
<glyph unicode="&#xe909;" glyph-name="arrow-right-circle" d="M512 960c-282.761 0-512-229.239-512-512 0-282.829 229.239-512 512-512 282.829 0 512 229.171 512 512 0 282.761-229.171 512-512 512zM672.427 423.765l-221.388-221.388c-13.312-13.243-34.954-13.243-48.264 0-13.312 13.312-13.312 35.021 0 48.264l197.359 197.359-197.359 197.359c-13.312 13.312-13.312 34.954 0 48.264s34.954 13.312 48.264 0l221.388-221.388c6.827-6.69 10.036-15.497 9.966-24.235 0-8.807-3.276-17.545-9.966-24.235z" />
<glyph unicode="&#xe90a;" glyph-name="arrow-right-down" d="M874.146 810.043c-200.079 199.943-524.194 199.943-724.138 0s-199.943-524.126 0-724.138c199.943-199.875 524.194-199.875 724.138 0 199.737 200.012 199.737 524.263 0 724.138zM750.998 243.253v-0.137l-2.595-12.833c-3.482-8.261-10.035-15.018-18.499-18.499l-13.037-2.663h-289.71c-18.841 0-34.131 15.428-34.131 34.131 0 18.772 15.29 34.131 34.131 34.131h207.315l-376.13 376.134c-13.312 13.312-13.312 34.952 0 48.262 13.312 13.312 34.952 13.312 48.262 0l376.13-376.13v207.315c0 18.841 15.359 34.131 34.131 34.131 18.703 0 34.131-15.29 34.131-34.131 0.002 0 0.002-289.71 0.002-289.71z" />
<glyph unicode="&#xe90b;" glyph-name="arrow-up-1" d="M512.001 960c-282.761 0-512.001-229.24-512.001-512.001 0-282.829 229.24-512.001 512.001-512.001 282.829 0 512.001 229.172 512.001 512.001-0.002 282.761-229.174 512.001-512.001 512.001zM757.624 338.772c-13.313-13.313-34.953-13.313-48.264 0l-197.359 197.359-197.359-197.359c-13.313-13.313-34.953-13.313-48.264 0-13.313 13.244-13.313 34.953 0 48.264l221.388 221.39c6.691 6.691 15.429 9.966 24.235 9.966s17.544-3.278 24.235-9.966l221.388-221.388c13.313-13.313 13.313-34.885 0-48.266z" />
<glyph unicode="&#xe90c;" glyph-name="arrow-up" d="M512.001 960c-282.761 0-512.001-229.24-512.001-512.001 0-282.829 229.24-512.001 512.001-512.001 282.829 0 512.001 229.172 512.001 512.001-0.002 282.761-229.174 512.001-512.001 512.001zM512.001 4.266c-244.667 0-443.733 199.066-443.733 443.733s199.064 443.735 443.733 443.735 443.733-199.066 443.733-443.733-199.066-443.735-443.733-443.735zM532.479 607.539c-11.605 14.814-30.516 14.814-42.121 0l-0.752-1.366-208.485-263.305c-11.605-14.814-11.605-38.843 0-53.658l0.342-0.273c5.393-7.168 12.903-11.605 21.299-11.605h417.11c8.534 0 16.112 4.642 21.436 12.016l0.137-0.137c11.674 14.814 11.674 38.843 0 53.658l-208.966 264.671z" />
<glyph unicode="&#xe90d;" glyph-name="arrows-inside-a-circle-pointing-up" d="M512.001 960c-282.761 0-512.001-229.24-512.001-512.001 0-282.829 229.24-512.001 512.001-512.001 282.829 0 512.001 229.172 512.001 512.001-0.002 282.761-229.174 512.001-512.001 512.001zM766.43 215.62c-13.448-13.313-35.226-13.313-48.537 0l-204.526 180.908-204.595-180.908c-13.379-13.313-35.157-13.313-48.537 0-13.379 13.379-13.379 35.226 0 48.537l228.351 202c6.826 6.826 15.77 10.104 24.712 9.966 8.944 0.204 17.886-3.072 24.712-9.898l228.42-201.934c13.379-13.515 13.379-35.224 0-48.672zM766.43 460.425c-13.448-13.379-35.226-13.379-48.537 0l-204.664 180.974-204.526-180.974c-13.379-13.379-35.157-13.379-48.537 0s-13.379 35.157 0 48.537l228.351 202c6.826 6.826 15.77 10.104 24.643 9.966 9.079 0.204 18.023-3.072 24.849-9.898l228.42-202c13.379-13.448 13.379-35.157 0-48.606z" />
<glyph unicode="&#xe90e;" glyph-name="arrows-pointing-down" d="M511.999 960c-282.752 0-511.999-229.247-511.999-511.999s229.247-511.999 511.999-511.999 511.999 229.247 511.999 511.999-229.245 511.999-511.999 511.999zM511.999 4.597c-244.476 0-443.404 198.928-443.404 443.404s198.93 443.404 443.404 443.404 443.404-198.928 443.404-443.404-198.928-443.404-443.404-443.404zM713.877 437.984l-205.582-181.78-205.513 181.78c-13.444 13.444-35.327 13.444-48.771 0s-13.444-35.396 0-48.771l229.452-202.975c6.859-6.928 15.846-10.153 24.831-10.014 8.985-0.138 18.041 3.155 24.831 10.014l229.522 202.975c13.377 13.377 13.377 35.327 0 48.771-13.513 13.446-35.394 13.446-48.771 0zM483.395 432.224c6.859-6.928 15.846-10.153 24.831-10.014 8.918-0.138 18.041 3.155 24.831 10.014l229.452 202.908c13.444 13.444 13.444 35.327 0 48.771-13.377 13.444-35.258 13.444-48.635 0l-205.582-181.78-205.513 181.78c-13.513 13.513-35.396 13.513-48.84 0.069s-13.444-35.327 0-48.771l229.455-202.977z" />
<glyph unicode="&#xe90f;" glyph-name="atomic-symbol-outline" d="M827.597 451.52c17.344 16.639 33.536 33.28 47.871 49.472 80.896 92.096 103.425 167.424 67.136 224.001-15.36 23.872-47.616 52.287-114.24 52.287-41.728 0-95.296-12.223-155.008-33.536-25.791 113.665-73.28 216.256-161.345 216.256-89.599 0-137.217-106.111-162.688-222.144-59.776 20.288-113.536 31.873-155.583 31.873-70.401 0-103.487-29.952-118.783-55.040-49.664-81.407 27.839-184.768 121.407-270.209-17.279-16.704-33.536-33.28-47.809-49.472-80.896-92.096-103.487-167.488-67.136-224.001 15.36-23.872 47.616-52.225 114.176-52.225 41.856 0 95.425 12.161 155.072 33.472 25.791-113.6 73.216-216.256 161.345-216.256 89.599 0 137.279 106.111 162.688 222.144 59.841-20.159 113.471-31.873 155.583-31.873 70.527 0 103.425 30.016 118.783 55.040 49.601 81.411-27.837 184.834-121.47 270.211zM129.549 681.344c10.113 16.512 32.513 24.384 64.128 24.384 36.927 0 86.784-11.265 143.616-31.232-6.849-43.904-11.009-86.719-13.504-123.393-28.608-21.12-55.040-42.497-80.064-63.999-90.304 81.985-137.279 156.417-114.176 194.24zM320.269 423.936l-27.457 21.44 27.328 22.465-0.191-19.841 0.32-24.064zM195.533 182.721c-29.311 0-50.368 7.296-60.352 22.847-23.999 37.312 21.313 113.024 109.76 197.055 27.457-22.465 54.591-42.944 79.039-60.161 2.624-37.823 6.975-81.727 14.209-126.719-56.703-21.055-106.305-33.022-142.656-33.022zM632.332 599.105l-20.352 12.799-35.008 20.417c16.512 8.321 32.64 16.063 48.385 23.167 2.688-18.111 4.992-36.991 6.975-56.383zM511.95 896.001c41.345 0 78.143-69.184 101.568-176-33.665-14.529-68.415-31.488-104.128-50.88-34.241 17.535-67.648 32.896-99.967 46.144 23.294 109.504 60.477 180.736 102.527 180.736zM398.029 650.943l44.736-20.223-34.623-21.184-16.639-11.391c1.79 18.176 3.965 35.775 6.526 52.799zM391.565 296.897l20.352-12.737 35.072-20.352c-16.512-8.321-32.64-16.063-48.447-23.167-2.69 17.92-4.994 36.8-6.977 56.256zM511.95 0.001c-41.407 0-78.143 69.184-101.568 176 33.665 14.529 68.479 31.488 104.128 50.88 34.176-17.473 67.583-32.831 99.967-46.144-23.296-109.504-60.417-180.736-102.527-180.736zM626.061 245.057c-14.591 6.208-29.569 13.057-44.736 20.159l34.623 21.248 16.577 11.391c-1.921-18.176-4.096-35.84-6.464-52.799zM638.349 379.072c-18.496-13.057-37.312-25.92-57.152-38.657-22.72-14.656-45.183-28.033-67.456-40.896-22.592 12.288-45.376 25.28-68.415 39.168-20.608 12.608-40.384 25.409-59.583 38.463-1.087 23.103-1.792 46.655-1.792 70.848 0 23.488 0.705 46.399 1.663 68.928 18.431 13.057 37.312 25.985 57.088 38.719 22.72 14.591 45.183 28.033 67.456 40.832 22.592-12.288 45.376-25.153 68.415-39.168 20.608-12.608 40.384-25.471 59.647-38.399 0.961-23.167 1.728-46.72 1.728-70.912 0-23.486-0.767-46.397-1.599-68.926zM828.3 713.281c29.376 0 50.368-7.36 60.352-22.912 23.999-37.312-21.248-112.895-109.76-197.055-27.519 22.4-54.655 42.879-79.104 60.223-2.624 37.761-6.849 81.792-14.209 126.784 56.897 21.055 106.433 32.96 142.72 32.96zM703.628 472.064l27.457-21.44-27.392-22.465 0.256 19.841-0.32 24.064zM894.349 214.656c-10.113-16.512-32.513-24.384-64.128-24.384-36.865 0-86.655 11.265-143.616 31.232 6.784 43.904 11.009 86.719 13.504 123.393 28.608 21.12 55.040 42.497 80.129 63.999 90.239-82.048 137.215-156.415 114.112-194.24z" />
<glyph unicode="&#xe910;" glyph-name="attention-sign-outline" d="M512 960c-282.752 0-512-229.248-512-512s229.248-512 512-512 512 229.248 512 512-229.248 512-512 512zM512 0.001c-247.039 0-447.999 201.024-447.999 447.999 0 247.039 200.96 447.999 447.999 447.999 246.977 0 447.999-200.96 447.999-447.999 0-246.975-201.024-447.999-447.999-447.999zM512 768.001c-35.328 0-63.999-28.673-63.999-63.999v-319.999c0-35.328 28.673-63.999 63.999-63.999s63.999 28.673 63.999 63.999v319.997c0 35.328-28.671 64.001-63.999 64.001zM575.999 193.025c0-35.346-28.653-63.999-63.999-63.999s-63.999 28.653-63.999 63.999c0 35.346 28.653 63.999 63.999 63.999s63.999-28.653 63.999-63.999z" />
<glyph unicode="&#xe911;" glyph-name="back-arrow-button" d="M512.001 960c-282.761 0-512.001-229.24-512.001-512.001 0-282.829 229.24-512.001 512.001-512.001 282.829 0 512.001 229.172 512.001 512.001-0.002 282.761-229.174 512.001-512.001 512.001zM512.001 4.266c-244.667 0-443.733 199.066-443.733 443.733s199.064 443.735 443.733 443.735 443.733-199.066 443.733-443.733-199.066-443.735-443.733-443.735zM621.228 693.624c-13.313 13.313-34.953 13.313-48.264 0l-221.39-221.39c-6.691-6.691-9.966-15.429-9.966-24.235s3.278-17.544 9.966-24.235l221.388-221.388c13.313-13.244 34.953-13.244 48.264 0 13.313 13.313 13.313 35.020 0 48.264l-197.359 197.359 197.359 197.359c13.313 13.313 13.313 34.953 0.002 48.266z" />
<glyph unicode="&#xe912;" glyph-name="backward-arrow-1" d="M512.033 960c-282.732 0-511.964-229.232-511.964-511.964-0.069-282.871 229.163-512.036 511.964-512.036 282.732 0 511.897 229.232 511.897 511.964 0.069 282.804-229.163 512.036-511.897 512.036zM497.082 197.401c-13.443-13.307-35.325-13.307-48.768 0l-203.030 229.506c-6.859 6.859-10.152 15.914-10.014 24.899-0.069 8.917 3.155 17.902 10.014 24.76l202.961 229.437c13.443 13.443 35.325 13.443 48.768 0 13.512-13.443 13.512-35.325 0-48.768l-181.768-205.499 181.768-205.499c13.512-13.579 13.512-35.391 0.069-48.837zM743.050 197.401c-13.376-13.307-35.394-13.307-48.768 0l-203.030 229.506c-6.859 6.859-10.152 15.914-10.014 24.899-0.069 8.917 3.155 17.902 10.014 24.76l202.894 229.437c13.512 13.443 35.394 13.443 48.768 0 13.512-13.443 13.512-35.325 0-48.768l-181.63-205.499 181.768-205.637c13.441-13.441 13.441-35.253-0.002-48.699z" />
<glyph unicode="&#xe913;" glyph-name="backward-arrow" d="M386.698 447.877l395.417 395.417c26.673 26.673 26.673 70.031 0 96.699s-70.031 26.673-96.699 0l-443.564-443.56c-13.405-13.405-19.968-30.912-19.968-48.556s6.567-35.151 19.968-48.556l443.564-443.422c26.673-26.535 70.031-26.535 96.699 0 26.673 26.673 26.673 70.164 0 96.699l-395.417 395.279z" />
<glyph unicode="&#xe914;" glyph-name="basket-ball-dribbble-logo" d="M512 960c-282.752 0-512-229.248-512-512s229.248-512 512-512 512 229.248 512 512c0 282.816-229.248 512-512 512zM512 64.896c-211.264 0-383.168 171.904-383.168 383.104s171.904 383.168 383.168 383.168 383.104-171.904 383.104-383.168-171.84-383.104-383.104-383.104zM631.232 409.472c42.879-117.632 60.223-213.376 63.616-233.344 73.345 49.664 125.632 128.32 140.223 219.456-11.073 3.52-101.184 30.401-203.839 13.888zM567.872 393.6c-184.577-64.257-250.879-192.384-256.767-204.351 55.487-43.264 125.247-69.055 200.895-69.055 45.376-0.064 88.64 9.217 127.871 25.985-4.863 28.673-23.872 128.832-69.825 248.191l-2.175-0.769zM604.223 478.016l6.975-16.897c108.928 13.695 217.152-8.256 227.903-10.56-0.64 77.247-28.224 148.223-73.792 203.904-6.784-9.279-61.695-79.615-182.784-129.023 7.618-15.616 14.913-31.488 21.697-47.424zM534.847 444.671l12.928 3.84c-8.256 18.625-17.215 37.247-26.561 55.552-163.455-48.896-322.111-46.848-336.447-46.528l-0.129-9.984c0.064-84.031 31.873-160.831 84.16-218.88 7.424 12.674 97.217 161.474 266.048 216zM494.207 554.431c-54.273 96.448-112.704 177.472-121.345 189.313-91.584-43.2-160.064-127.615-181.248-229.184 14.658-0.191 149.506-0.767 302.593 39.871zM729.023 692.353c-57.92 51.264-133.824 82.497-217.023 82.497-26.367 0-52.096-3.135-76.671-9.088 9.023-12.161 68.479-93.119 122.112-191.616 116.415 43.582 165.63 109.822 171.582 118.207z" />
<glyph unicode="&#xe915;" glyph-name="black-arrow" d="M802.519 316.128l-532.147 632.486c-8.702 10.302-22.909 14.078-35.45 9.407-12.607-4.608-21.054-16.64-21.054-30.076v-834.887c0-13.887 8.83-26.045 21.949-30.459l10.047-1.537c9.919 0 19.518 4.543 25.66 12.927l143.083 192.74 99.251-283.991c12.735-36.284 52.536-55.544 88.883-42.809 36.284 12.67 55.608 52.473 42.875 88.947l-97.394 278.615 223.839-43.386c13.501-2.623 26.877 3.648 33.659 15.23 6.845 11.775 5.694 26.43-3.2 36.795z" />
<glyph unicode="&#xe916;" glyph-name="black-cart" d="M248.62 321.768l-14.666-65.901h686.553c17.612 0 32.022-14.41 32.022-32.022s-14.41-32.022-32.022-32.022h-726.518c-9.735 0-18.893 4.355-24.977 12.040-6.084 7.494-8.391 17.42-6.277 26.899l32.598 146.726-1.344 6.468-55.654 278.206-39.772 170.101h-66.542c-17.741 0-32.022 14.347-32.022 32.022s14.345 32.022 32.022 32.022h91.904c14.922 0 27.796-10.247 31.189-24.721l24.85-106.185 14.025 2.817h768.53c35.479 0 75.060-24.016 56.936-81.208l-103.944-319.067c-17.035-41.053-38.426-48.033-73.651-48.033h-583.826l-9.414 1.858zM258.035 127.779c-35.353 0-64.043-28.693-64.043-64.043 0-35.353 28.693-64.043 64.043-64.043s64.043 28.693 64.043 64.043c0 35.351-28.691 64.043-64.043 64.043zM834.432 127.779c-35.417 0-64.045-28.693-64.045-64.043 0-35.353 28.628-64.043 64.045-64.043 35.288 0 64.043 28.693 64.043 64.043s-28.755 64.043-64.043 64.043z" />
<glyph unicode="&#xe917;" glyph-name="black-gallon" d="M128 0.001c0-25.856 15.616-49.281 39.488-59.136 7.936-3.264 16.256-4.863 24.513-4.863 16.639 0 33.024 6.528 45.248 18.751l274.751 274.751 274.751-274.751c12.223-12.223 28.608-18.751 45.248-18.751 8.256 0 16.577 1.601 24.448 4.863 23.937 9.855 39.553 33.28 39.553 59.136v768h-768v-768zM831.999 960h-640c-35.326 0-63.999-28.673-63.999-63.999v-63.999h768v63.999c0 35.326-28.673 63.999-64.001 63.999z" />
<glyph unicode="&#xe918;" glyph-name="blogger-botton" d="M512 960c-282.752 0-512-229.248-512-512s229.248-512 512-512 512 229.248 512 512c0 282.816-229.248 512-512 512zM831.103 334.849c0-113.791-92.607-206.016-207.295-206.016h-223.425c-114.561 0-207.615 92.096-207.615 206.016v226.175c0.064 113.856 92.992 206.143 207.615 206.143h104.639c114.688 0 206.463-85.632 206.463-199.488 1.472-21.313 20.737-39.871 42.624-39.871h35.775c22.912 0 41.281-24.064 41.281-46.784l-0.062-146.176zM631.679 368.192h-239.359c-21.951 0-39.871-17.92-39.871-39.873 0-21.889 17.984-39.871 39.871-39.871h239.359c21.951 0 39.871 17.984 39.871 39.871 0.002 21.953-17.92 39.873-39.871 39.873zM392.321 527.808h119.679c21.951 0 39.871 17.984 39.871 39.871 0 21.951-17.984 39.871-39.871 39.871h-119.679c-21.951 0-39.871-17.984-39.871-39.871-0.066-21.951 17.918-39.871 39.871-39.871z" />
<glyph unicode="&#xe919;" glyph-name="blogger-logo-silhouette" d="M957.76 576h-57.408c-35.137 0-65.92 29.76-68.353 63.999 0 182.658-147.263 320.001-331.199 320.001h-167.809c-183.807 0-332.862-148.032-332.991-330.688v-362.816c0-182.655 149.184-330.496 332.991-330.496h358.4c183.936 0 332.609 147.903 332.609 330.559v234.369c-0.064 36.48-29.505 75.072-66.24 75.072zM319.937 704h191.999c35.199 0 64.001-28.8 64.001-63.999s-28.8-63.999-63.999-63.999h-191.999c-35.199 0-63.999 28.8-63.999 63.999s28.796 63.999 63.997 63.999zM703.937 192h-384c-35.199 0-63.999 28.8-63.999 63.999s28.8 64.001 63.999 64.001h384c35.199 0 63.999-28.8 63.999-64.001 0-35.199-28.8-63.999-63.999-63.999z" />
<glyph unicode="&#xe91a;" glyph-name="blogger-logo" d="M831.999 960h-640c-106.047 0-191.999-85.952-191.999-191.999v-640c0-106.049 85.952-191.999 191.999-191.999h640c106.049 0 191.999 85.952 191.999 191.999v640c0.002 106.047-85.95 191.999-191.999 191.999zM831.103 334.849c0-113.791-92.607-206.016-207.295-206.016h-223.425c-114.561 0-207.615 92.096-207.615 206.016v226.175c0.064 113.856 92.992 206.143 207.615 206.143h104.639c114.688 0 206.463-85.632 206.463-199.488 1.472-21.313 20.737-39.871 42.624-39.871h35.775c22.912 0 41.281-24.064 41.281-46.784l-0.062-146.176zM631.679 368.192h-239.359c-21.951 0-39.871-17.92-39.871-39.873 0-21.889 17.984-39.871 39.871-39.871h239.359c21.951 0 39.871 17.984 39.871 39.871 0.002 21.953-17.92 39.873-39.871 39.873zM392.321 527.808h119.679c21.951 0 39.871 17.984 39.871 39.871 0 21.951-17.984 39.871-39.871 39.871h-119.679c-21.951 0-39.871-17.984-39.871-39.871-0.066-21.951 17.918-39.871 39.871-39.871z" />
<glyph unicode="&#xe91b;" glyph-name="boat-lifesaver" d="M874.071 810.049c-100.032 99.967-231.038 149.951-362.047 149.951s-262.144-49.984-362.049-149.951c-199.935-199.935-199.935-524.159 0-724.096 99.967-99.967 231.040-149.951 362.047-149.951s262.144 49.984 362.047 149.951c199.875 199.935 199.875 524.159 0.002 724.096zM512.024 896.001c69.887 0 137.152-16.321 197.951-46.399l-98.751-98.751c-32.255 10.56-65.6 17.153-99.2 17.153-30.656 0-60.864-5.824-90.495-14.529l-99.903 99.841c58.878 27.581 123.453 42.686 190.398 42.686zM110.425 249.984c-30.080 60.864-46.399 128.129-46.399 198.016 0 66.943 15.040 131.455 42.753 190.271l99.903-99.841c-18.304-62.080-17.473-128 2.559-189.695l-98.816-98.751zM512.024 0.001c-64.063 0-125.823 13.76-182.655 39.104l100.864 100.864c26.816-7.104 54.144-12.032 81.727-12.032 30.656 0 60.864 5.824 90.495 14.656l99.903-99.903c-58.878-27.585-123.391-42.688-190.334-42.688zM693.016 267.008c-48.32-48.385-112.704-75.008-180.992-75.008s-132.672 26.625-180.992 75.008c-48.385 48.32-75.008 112.64-75.008 180.992s26.625 132.672 75.008 180.992c48.32 48.385 112.64 75.008 180.992 75.008 68.288 0 132.672-26.625 180.992-75.008 48.385-48.32 75.008-112.64 75.008-180.992s-26.625-132.672-75.008-180.992zM817.432 357.505c16.639 56.256 17.473 115.584 2.559 172.225l100.672 100.672c52.608-118.463 51.456-254.913-3.649-372.544l-99.583 99.647z" />
<glyph unicode="&#xe91c;" glyph-name="bolt-silhouette" d="M592.576 407.297l111.168-7.296c6.849 12.096 13.312 24.704 19.007 37.888 5.697 13.119 10.368 26.432 14.529 39.809l-81.472 75.839c2.753 21.695 3.135 43.328 1.152 64.639l83.52 73.28c-7.424 27.328-17.92 53.697-31.232 78.657l-111.232-4.031c-13.119 16.959-28.224 32.449-45.121 46.273l7.231 111.168c-12.096 6.913-24.768 13.312-37.888 19.007-13.119 5.632-26.432 10.368-39.809 14.464l-75.775-81.601c-21.695 2.753-43.328 3.135-64.639 1.025l-73.471 83.582c-27.328-7.489-53.697-17.984-78.657-31.297l4.031-111.041c-16.957-13.119-32.447-28.222-46.27-45.119l-111.168 7.231c-6.913-12.161-13.312-24.704-19.007-37.888-5.632-13.119-10.368-26.432-14.464-39.809l81.601-75.839c-2.753-21.695-3.135-43.328-1.025-64.639l-83.584-73.28c7.489-27.263 17.984-53.695 31.297-78.719l111.041 4.096c13.119-16.959 28.288-32.449 45.183-46.273l-7.296-111.168c12.161-6.849 24.704-13.312 37.888-19.007 13.119-5.697 26.432-10.368 39.809-14.529l75.839 81.472c21.695-2.753 43.328-3.135 64.639-1.025l73.28-83.649c27.328 7.424 53.695 17.92 78.657 31.232l-4.031 111.232c16.959 13.248 32.447 28.417 46.27 45.314zM294.079 413.568c-97.406 41.983-142.271 154.945-100.288 252.353 41.983 97.344 154.943 142.271 252.351 100.288 97.344-41.983 142.209-154.943 100.288-252.351-41.981-97.41-154.943-142.209-252.351-100.29zM466.112 589.888c0-53.020-42.981-96.001-96.001-96.001s-96.001 42.981-96.001 96.001c0 53.020 42.981 96.001 96.001 96.001s96.001-42.981 96.001-96.001zM1022.655 135.361l1.343 24.639-1.343 24.704-61.248 21.824-26.496 9.344 12.032 25.471 27.839 58.496c-10.24 12.799-22.016 24.639-34.879 35.008l-83.969-40-9.344 26.496-21.76 61.248-24.833 1.408-24.768-1.343-21.76-61.248-9.344-26.496-25.471 12.032-58.496 27.839c-12.863-10.24-24.639-22.080-35.008-34.879l40-84.033-87.744-31.168-1.408-24.704 1.343-24.639 87.744-31.168-12.032-25.409-27.839-58.624c10.24-12.801 22.016-24.513 34.879-34.879l84.033 39.871 9.408-26.496 21.76-61.248 24.704-1.408 24.768 1.343 21.76 61.248 9.344 26.496 25.471-12.032 58.496-27.839c12.863 10.24 24.639 22.016 35.008 34.879l-27.968 58.624-12.032 25.344 26.496 9.344 61.313 21.955zM799.999 112c-26.496 0-48 21.504-48 48s21.504 48 48 48 48-21.504 48-48-21.504-48-48-48z" />
<glyph unicode="&#xe91d;" glyph-name="book-information" d="M929.343 960h-703.999c-88.32 0-159.808-70.976-161.087-158.977l-0.256 0.32v-703.999c0-89.088 72.255-161.345 161.345-161.345h543.999c35.328 0 62.656 28.673 62.656 63.999v672.002c0 17.664-12.992 31.999-30.656 31.999h-576.001c-53.697 0-97.344 41.025-97.344 94.655 0 53.697 43.649 97.344 97.344 97.344h670.656v-736.001c0-17.6 15.681-31.999 33.345-31.999s30.656 14.4 30.656 31.999v768.002c-0.002 17.664-12.994 31.999-30.658 31.999zM225.344 640.001h542.719l1.343-640h-543.997c-53.759 0-97.408 43.649-97.408 97.344v573.951c26.881-19.712 60.479-31.295 97.344-31.295z" />
<glyph unicode="&#xe91e;" glyph-name="box-outline" d="M959.999 896.001h-896c-35.326 0-63.999-28.673-63.999-64.001v-128h1024v128c0 35.328-28.673 64.001-64.001 64.001zM959.999 768.001h-896v63.999h896v-63.999zM63.999 64c0-35.328 28.673-63.999 63.999-63.999h768c35.328 0 63.999 28.673 63.999 63.999v576.001h-895.998v-576.001zM128 576h768v-512h-768v512zM671.999 512.001h-319.999c-17.664 0-31.999-14.335-31.999-31.999 0-17.6 14.335-31.999 31.999-31.999h319.999c17.6 0 31.999 14.4 31.999 31.999 0 17.662-14.4 31.999-31.999 31.999z" />
<glyph unicode="&#xe91f;" glyph-name="calendar" d="M1020.224 780.033c-8.127 26.047-31.488 45.312-60.223 45.312h-63.999v-99.327c0-52.928-43.073-96.001-96.001-96.001s-96.001 43.073-96.001 96.001v99.327h-384.322v-99.327c0-52.928-43.073-96.001-96.001-96.001s-96.001 43.073-96.001 96.001v99.327h-63.679c-28.735 0-52.161-19.265-60.223-45.312h-3.776v-780.032c0-35.328 28.673-63.999 63.999-63.999h896c35.328 0 63.999 28.673 63.999 63.999v780.032h-3.774zM959.999 0.001h-896v512h896v-512zM223.68 694.016c17.664 0 31.999 14.335 31.999 31.999v201.985c0 17.664-14.335 31.999-31.999 31.999s-31.999-14.335-31.999-31.999v-201.985c0-17.664 14.335-31.999 31.999-31.999zM799.999 694.016c17.6 0 31.999 14.335 31.999 31.999v201.985c0 17.664-14.4 31.999-31.999 31.999s-31.999-14.335-31.999-31.999v-201.985c0-17.664 14.4-31.999 31.999-31.999z" />
<glyph unicode="&#xe920;" glyph-name="caution-sign" d="M1005.247 678.785l-262.399 262.464c-12.032 12.032-28.288 18.751-45.376 18.751h-371.008c-16.959 0-33.28-6.72-45.248-18.751l-262.399-262.464c-12.096-11.969-18.816-28.224-18.816-45.248v-371.137c0-16.959 6.72-33.28 18.751-45.248l262.399-262.464c12.032-11.967 28.288-18.689 45.312-18.689h371.137c16.959 0 33.28 6.72 45.248 18.751l262.399 262.528c12.032 11.967 18.751 28.159 18.751 45.248v371.010c0.002 16.959-6.718 33.278-18.751 45.248zM959.999 262.529l-262.528-262.528h-371.008l-262.464 262.528v371.008l262.464 262.464h371.137l262.399-262.464v-371.008zM512 768.001c-35.328 0-63.999-28.673-63.999-63.999v-319.999c0-35.328 28.673-63.999 63.999-63.999s63.999 28.673 63.999 63.999v319.997c0 35.328-28.671 64.001-63.999 64.001zM575.999 192c0-35.346-28.653-63.999-63.999-63.999s-63.999 28.653-63.999 63.999c0 35.346 28.653 63.999 63.999 63.999s63.999-28.653 63.999-63.999z" />
<glyph unicode="&#xe921;" glyph-name="chat-conversation" d="M1024 358.497c0 91.391-51.007 172.864-130.88 227.456 5.632-25.344 8.897-51.392 8.897-78.144 0-206.591-175.361-378.815-406.272-415.807 48.832-19.712 103.488-31.232 161.855-31.232 54.847 0 106.88 10.112 153.6 27.84 59.393-20.16 124.097-25.409 177.664-25.409-27.969 33.344-47.167 66.113-60.993 94.911 59.519 52.864 96.128 123.071 96.128 200.384zM806.015 507.809c0 180.801-180.352 327.424-403.007 327.424-222.593-0.002-403.009-146.626-403.009-327.424 0-94.336 49.344-179.072 127.937-238.783-14.783-38.144-39.807-87.999-82.239-139.009 80.513 0 184.193 10.495 264 59.647 30.015-5.889 61.184-9.28 93.311-9.28 222.591 0 403.007 146.623 403.007 327.424z" />
<glyph unicode="&#xe922;" glyph-name="check-button" d="M512 960c-282.752 0-512-229.248-512-512s229.248-512 512-512 512 229.248 512 512-229.248 512-512 512zM512 0.001c-247.039 0-447.999 201.024-447.999 447.999 0 247.039 200.96 447.999 447.999 447.999 246.977 0 447.999-200.96 447.999-447.999 0-246.975-201.151-447.999-447.999-447.999zM736.256 651.648c-20.608 13.568-48.447 7.745-62.016-12.992l-216.065-330.176-103.296 95.616c-18.176 16.768-46.528 15.681-63.361-2.497s-15.681-46.464 2.497-63.296l142.784-132.031 1.663-1.087 3.391-3.455 6.144-2.368 7.36-3.008 7.489-1.216 10.751 0.129 4.352 1.087 12.543 5.248 1.983 1.343 7.68 5.568 3.584 5.952 0.191 0.256 245.247 374.719c13.572 20.868 7.747 48.643-12.924 62.211z" />
<glyph unicode="&#xe923;" glyph-name="check-sign-1" d="M994.449 946.189c-29.952 19.72-70.415 11.256-90.135-18.883l-511.884-820.427-283.151 275.336c-26.417 24.558-67.532 22.881-91.996-3.536-24.371-26.323-22.791-67.625 3.629-91.903l340.635-331.427 2.417-1.58 4.929-5.116 8.929-3.348 10.697-4.466 10.885-1.674 15.626 0.187 6.325 1.49 18.231 7.627 2.883 2.046 11.163 8.092 5.21 8.558 0.278 0.372 554.208 888.424c19.726 30.14 11.353 70.511-18.877 90.229z" />
<glyph unicode="&#xe924;" glyph-name="check-sign" d="M512 960c-282.752 0-512-229.248-512-512s229.248-512 512-512 512 229.248 512 512-229.248 512-512 512zM749.184 589.633l-245.438-374.977-3.584-5.952-7.68-5.568-1.983-1.343-12.543-5.248-4.352-1.025-10.751-0.256-7.489 1.281-7.36 2.88-6.144 2.433-3.391 3.393-1.663 1.025-142.784 132.031c-18.176 16.832-19.265 45.183-2.497 63.296 16.768 18.111 45.121 19.265 63.296 2.497l103.361-95.616 215.996 330.172c13.568 20.673 41.343 26.496 62.016 12.992 20.735-13.568 26.561-41.343 12.992-62.016z" />
<glyph unicode="&#xe925;" glyph-name="checked-box" d="M866.411 14.793h-787.648v787.648h580.969l49.149 78.764h-630.118c-43.476 0.002-78.764-35.285-78.764-78.764v-787.648c0-43.478 35.288-78.764 78.764-78.764h787.648c43.478 0 78.764 35.288 78.764 78.764v520.084l-78.764-126.259v-393.825zM999.052 950.992c-9.373 6.064-19.848 8.979-30.168 8.979-17.957 0-35.523-8.823-46.157-24.968l-428.166-617.672-165.643 189.035c-22.448 20.716-57.262 19.375-77.978-2.994s-19.298-57.262 3.073-77.899l208.963-238.499 2.047-1.261 4.173-4.173 10.79-4.961 2.441-1.182 16.934-2.914 0.709 0.159c14.966-0.079 29.853 5.435 40.799 17.328l4.491 7.246 0.235 0.315 469.446 677.217c16.619 25.362 9.452 59.547-15.99 76.246z" />
<glyph unicode="&#xe926;" glyph-name="circle-with-a-down-arrow" d="M512.001 960c-282.761 0-512.001-229.24-512.001-512.001 0-282.829 229.24-512.001 512.001-512.001 282.829 0 512.001 229.172 512.001 512.001-0.002 282.761-229.174 512.001-512.001 512.001zM512.001 4.266c-244.667 0-443.733 199.066-443.733 443.733s199.064 443.735 443.733 443.735 443.733-199.066 443.733-443.733-199.066-443.735-443.733-443.735zM741.854 538.863c-5.393 7.099-12.903 11.537-21.368 11.537h-417.11c-8.534 0-16.112-4.71-21.503-12.016l-0.137 0.137c-11.605-14.814-11.605-38.843 0-53.658l209.033-264.671c11.605-14.883 30.516-14.883 42.121 0l0.818 1.433 208.554 263.236c11.605 14.814 11.605 38.843 0 53.658l-0.408 0.344z" />
<glyph unicode="&#xe927;" glyph-name="circle" d="M512 960c-282.795 0-512-229.205-512-512s229.205-512 512-512 512 229.205 512 512-229.205 512-512 512zM512 21.333c-235.264 0-426.667 191.403-426.667 426.667s191.403 426.667 426.667 426.667 426.667-191.403 426.667-426.667-191.403-426.667-426.667-426.667z" />
<glyph unicode="&#xe928;" glyph-name="circular-clock" d="M874.040 810.042c-99.973 99.973-231.006 149.958-362.040 149.958s-262.069-49.985-362.042-149.958c-199.946-199.946-199.946-524.205 0-724.012 100.042-99.973 231.006-150.027 362.042-150.027s262.069 49.985 362.040 150.027c199.946 200.013 199.946 524.136 0 724.012zM825.562 134.574c-83.79-83.79-195.076-130.006-313.562-130.006-118.417 0-229.772 46.214-313.562 130.006-83.721 83.79-129.868 195.076-129.868 313.493 0 118.486 46.147 229.772 129.868 313.562 83.859 83.721 195.215 129.868 313.562 129.868s229.772-46.147 313.562-129.868 129.868-195.146 129.868-313.562-46.147-229.839-129.868-313.493zM715.441 484.616h-171.42v240.469c0 18.925-15.359 34.284-34.284 34.284-18.787 0-34.284-15.359-34.284-34.284v-274.752c0-18.856 15.428-34.284 34.284-34.284h205.704c18.925 0 34.284 15.428 34.284 34.284 0.002 18.925-15.359 34.284-34.284 34.284z" />
<glyph unicode="&#xe929;" glyph-name="circular-light-bulb" d="M512 960c-211.302 0-383.258-171.954-383.258-383.258 0-123.538 60.045-240.175 160.712-312.035l4.728-3.131c23.378-13.734 25.679-57.935 25.166-66.048l-0.128-4.024v-125.773c0-24.017 13.414-45.927 34.813-56.914l128.902-65.792c9.134-4.663 19.098-7.027 29.064-7.027 9.838 0 19.737 2.299 28.808 6.835l130.436 65.857c21.527 10.859 35.067 32.897 35.067 57.042v125.069c0 63.045 38.518 83.871 38.837 83.997l14.181 9.134c86.424 73.137 135.928 179.747 135.928 292.808 0 211.304-171.891 383.258-383.258 383.258zM512-0.123l-128.839 65.857h259.273l-130.434-65.857zM642.371 190.803v-61.194h-259.273v61.896l0.063 1.979h259.466l-0.256-2.681zM718.128 332.735c0 0-42.798-19.993-64.003-75.373h-281.247c-7.922 22.101-21.653 44.84-46.311 59.406-81.059 57.807-133.947 152.726-133.947 259.974 0 176.362 143.018 319.38 319.38 319.38 176.425 0 319.38-143.018 319.38-319.38 0-97.858-44.010-185.368-113.252-244.007zM543.939 832.247c-17.566 0-31.939-14.307-31.939-31.939s14.372-31.939 31.939-31.939c71.86 0 159.691-65.346 159.691-162.692 0-17.629 14.372-31.939 31.939-31.939s31.939 14.307 31.939 31.939c-0.002 145.701-113.767 226.569-223.569 226.569z" />
<glyph unicode="&#xe92a;" glyph-name="circular-menu-button" d="M512.001 960c-282.761 0-512.001-229.24-512.001-512.001 0-282.829 229.24-512.001 512.001-512.001 282.829 0 512.001 229.172 512.001 512.001-0.002 282.761-229.174 512.001-512.001 512.001zM785.068 209.067h-546.134c-18.842 0-34.133 15.36-34.133 34.133s15.291 34.133 34.133 34.133h546.134c18.773 0 34.133-15.36 34.133-34.133s-15.36-34.133-34.133-34.133zM785.068 413.866h-546.134c-18.842 0-34.133 15.36-34.133 34.133 0 18.842 15.291 34.133 34.133 34.133h546.134c18.773 0 34.133-15.291 34.133-34.133 0-18.773-15.36-34.133-34.133-34.133zM785.068 618.667h-546.134c-18.842 0-34.133 15.291-34.133 34.133s15.291 34.133 34.133 34.133h546.134c18.773 0 34.133-15.291 34.133-34.133s-15.36-34.133-34.133-34.133z" />
<glyph unicode="&#xe92b;" glyph-name="circular-pie-chart" d="M512 960c-282.752 0-512-229.248-512-512s229.248-512 512-512c165.056 0 311.487 78.528 405.12 199.744l-405.12 312.256v512zM600 951.424v-457.92l365.569-281.727c37.12 70.656 58.431 150.847 58.431 236.224 0 252.671-183.233 461.632-424 503.424z" />
<glyph unicode="&#xe92c;" glyph-name="close-button-1" d="M512 960c-282.761 0-512-229.239-512-512 0-282.829 229.239-512 512-512 282.829 0 512 229.171 512 512 0 282.761-229.171 512-512 512zM512 4.266c-244.668 0-443.734 199.066-443.734 443.734s199.066 443.734 443.734 443.734 443.734-199.066 443.734-443.734-199.066-443.734-443.734-443.734zM700.963 685.226l-187.597-187.665-168.345 187.665c-13.312 13.312-34.954 13.312-48.264 0-13.312-13.312-13.312-34.954 0-48.264l168.345-187.665-190.258-190.258c-13.312-13.312-13.312-35.021 0-48.264 13.312-13.312 34.954-13.312 48.264 0l187.665 187.597 168.345-187.597c13.243-13.312 34.954-13.312 48.196 0 13.312 13.245 13.312 34.954 0 48.264l-168.413 187.597 190.258 190.328c13.312 13.312 13.312 34.954 0 48.264s-34.884 13.31-48.196-0.002z" />
<glyph unicode="&#xe92d;" glyph-name="close-button" d="M512.001 960c-282.761 0-512.001-229.24-512.001-512.001 0-282.829 229.24-512.001 512.001-512.001 282.829 0 512.001 229.172 512.001 512.001-0.002 282.761-229.174 512.001-512.001 512.001zM749.228 636.961l-190.26-190.329 168.413-187.596c13.313-13.313 13.313-35.020 0-48.264-13.244-13.313-34.953-13.313-48.195 0l-168.413 187.596-187.665-187.596c-13.313-13.313-34.953-13.313-48.264 0-13.313 13.244-13.313 34.953 0 48.264l190.26 190.26-168.347 187.665c-13.313 13.313-13.313 34.953 0 48.264s34.953 13.313 48.264 0l168.413-187.665 187.596 187.665c13.313 13.313 34.953 13.313 48.264 0 13.313-13.311 13.244-34.951-0.067-48.264z" />
<glyph unicode="&#xe92e;" glyph-name="closed-lock" d="M896 576h-64.001v59.072c0 179.456-143.232 324.928-319.999 324.928-176.705 0-320.001-145.473-320.001-324.928v-59.072h-63.999c-35.328 0-63.999-28.673-63.999-63.999v-512c0-35.328 28.673-63.999 63.999-63.999h768c35.328 0 63.999 28.673 63.999 63.999v512c0 35.328-28.671 63.999-63.999 63.999zM256 635.072c0 143.872 114.816 260.927 256 260.927s256-117.056 256-260.927v-59.072h-512v59.072zM896 0.001h-768v512h768v-512zM512 128.001c70.721 0 128 57.279 128 128s-57.279 128-128 128-128-57.279-128-128 57.279-128 128-128zM512 320c35.264 0 63.999-28.735 63.999-64.001 0-35.264-28.735-63.999-63.999-63.999s-63.999 28.735-63.999 63.999c-0.002 35.266 28.735 64.001 63.999 64.001z" />
<glyph unicode="&#xe92f;" glyph-name="cloud-arrow-donwload" d="M831.999 448l-6.528-0.64c4.287 20.864 6.528 42.497 6.528 64.639 0 176.703-143.232 319.999-319.999 319.999-176.703 0-319.999-143.296-319.999-319.999l0.32-3.2c-108.546-15.487-192.321-107.903-192.321-220.799 0-112.768 83.584-205.12 191.999-220.801v-3.2h320.001l-199.808 256h135.807v256c0 35.328 28.673 63.999 63.999 63.999s63.999-28.673 63.999-63.999v-256h135.807l-199.808-256h319.999c106.049 0 191.999 85.952 191.999 191.999s-85.946 192.001-191.995 192.001z" />
<glyph unicode="&#xe930;" glyph-name="compass-east" d="M512 960c-282.752 0-512-229.248-512-512s229.248-512 512-512 512 229.248 512 512-229.248 512-512 512zM763.135 655.039l-124.031-198.656 0.896-8.383c0-70.721-57.279-128-128-128l-8.383 0.896-79.553-49.537-119.104-74.367c-5.183-3.391-11.071-4.992-16.959-4.992-8.256 0-16.448 3.2-22.656 9.344-10.56 10.495-12.416 26.881-4.48 39.488l123.967 198.592-0.832 8.576c0 70.721 57.279 128 128 128l8.383-0.832 198.592 123.967c12.481 7.872 28.991 6.017 39.615-4.545 10.689-10.493 12.481-26.879 4.545-39.551zM575.999 448c0-35.346-28.653-63.999-63.999-63.999s-63.999 28.653-63.999 63.999c0 35.346 28.653 63.999 63.999 63.999s63.999-28.653 63.999-63.999z" />
<glyph unicode="&#xe931;" glyph-name="computer-mouse-cursor" d="M802.538 316.065l-532.147 632.549c-8.702 10.302-22.846 14.078-35.45 9.407-12.607-4.608-21.052-16.638-21.052-30.076v-834.887c0-13.887 8.83-26.045 21.949-30.459l10.047-1.537c9.919 0 19.518 4.543 25.66 12.927l143.083 192.74 99.251-283.991c12.733-36.284 52.536-55.544 88.883-42.809 36.284 12.67 55.608 52.473 42.875 88.947l-97.394 278.615 223.839-43.386c13.373-2.688 26.877 3.583 33.659 15.101 6.845 11.841 5.566 26.493-3.202 36.861zM450.269 391.702c-12.093 2.431-24.445-2.431-31.739-12.35l-140.588-189.412v650.336l417.475-496.057-245.148 47.482z" />
<glyph unicode="&#xe932;" glyph-name="computer-screen" d="M959.999 896.001h-896c-35.326 0-63.999-28.673-63.999-64.001v-575.999c0-35.328 28.673-63.999 63.999-63.999h319.937c-0.129-46.273-1.983-106.367-19.521-128h-12.928c-17.408 0-31.488-14.4-31.488-31.999s14.080-31.999 31.488-31.999h320.96c17.408 0 31.552 14.4 31.552 31.999s-14.144 31.999-31.488 31.999h-12.863c-17.535 21.631-19.456 81.727-19.583 128h319.937c35.328 0 63.999 28.673 63.999 63.999v575.999c0 35.328-28.673 64.001-64.001 64.001zM959.999 320h-896v512h896v-512z" />
<glyph unicode="&#xe933;" glyph-name="condense-button-arrows-in-a-square" d="M959.999 960h-896c-35.326 0-63.999-28.673-63.999-63.999v-896c0-35.328 28.673-63.999 63.999-63.999h896c35.328 0 63.999 28.673 63.999 63.999v896c0.002 35.326-28.671 63.999-63.999 63.999zM447.999 96.002c0-17.6-14.335-31.999-31.999-31.999s-31.999 14.4-31.999 31.999v178.751l-201.345-201.345c-12.481-12.416-32.769-12.416-45.248 0-12.481 12.481-12.481 32.831 0 45.248l201.345 201.345h-178.753c-17.664 0-31.999 14.4-31.999 31.999s14.335 31.999 31.999 31.999h256l12.223-2.497c7.807-3.264 14.080-9.472 17.279-17.279l2.497-12.223v-255.998zM863.998 512.001h-256l-12.223 2.497-10.175 6.72-0.256 0.129-0.191 0.385-6.655 10.048-2.497 12.096v256.125c0 17.664 14.4 31.999 31.999 31.999s31.999-14.335 31.999-31.999v-178.751l201.345 201.345c12.416 12.481 32.769 12.481 45.248 0 12.416-12.481 12.416-32.769 0-45.248l-201.345-201.345h178.751c17.6 0 31.999-14.335 31.999-31.999 0.002-17.666-14.398-32.002-31.999-32.002z" />
<glyph unicode="&#xe934;" glyph-name="condensing-arrows" d="M1013.31 949.248c-14.116 14.264-37.449 14.264-51.711 0l-303.318-303.318v204.283c0 20.187-16.457 36.57-36.57 36.57s-36.57-16.383-36.57-36.57v-292.711l2.854-13.824 7.898-11.923 0.292-0.147 11.557-7.679 13.969-2.854h292.566c20.113 0 36.57 16.383 36.57 36.57s-16.457 36.57-36.57 36.57h-204.283l303.244 303.244c14.335 14.339 14.335 37.454 0.071 51.789zM416.257 371.943l-13.969 2.854h-292.566c-20.187 0-36.57-16.53-36.57-36.57 0-20.113 16.383-36.57 36.57-36.57h204.283l-303.244-303.247c-14.335-14.19-14.335-37.449-0.074-51.711 14.264-14.19 37.449-14.19 51.711 0l303.318 303.244v-204.283c0-20.113 16.383-36.57 36.57-36.57s36.57 16.457 36.57 36.57v292.566l-2.854 13.898c-3.728 8.92-10.821 16.162-19.745 19.819z" />
<glyph unicode="&#xe935;" glyph-name="contacts-agenda" d="M0 896.001v-896c0-35.328 28.673-63.999 63.999-63.999h63.999v1023.998h-63.999c-35.326 0-63.999-28.673-63.999-63.999zM831.999 960h-640v-1024h640c35.328 0 64.001 28.673 64.001 63.999v896.002c0 35.326-28.673 63.999-64.001 63.999zM540.48 713.344c53.504 0 96.832-43.393 96.832-96.832 0-53.504-43.455-96.897-96.832-96.897-53.504 0-96.897 43.393-96.897 96.897s43.393 96.832 96.897 96.832zM384 268.353c0 117.311 70.976 212.48 158.527 212.48 87.424 0 158.463-95.231 158.463-212.48-0.062-117.376-316.991-117.376-316.991 0zM959.999 896.001h63.999v-191.999h-63.999v191.999zM959.999 640.001h63.999v-191.999h-63.999v191.999zM959.999 384.001h63.999v-191.999h-63.999v191.999z" />
<glyph unicode="&#xe936;" glyph-name="dark-black-lightbulb" d="M511.969 960c-211.304 0-383.258-171.954-383.258-383.258 0-15.011 0.959-29.894 2.747-44.585l1.341-8.431c1.724-12.137 3.768-24.21 6.642-36.026l1.789-6.387c3.258-12.583 7.026-25.104 11.562-37.239l1.341-3.449c5.047-13.094 10.668-25.997 17.119-38.389l0.766-1.405c6.707-12.839 14.117-25.295 22.293-37.559l0.703-1.15c7.985-11.818 16.671-23.058 25.934-34.046l2.235-2.619c8.431-9.709 17.566-18.97 27.020-27.978l14.501-13.606 5.748-3.642 19.035-15.586 6.642-5.748c44.075-36.538 22.548-65.473 71.605-65.473h288.466c49.121 0 27.594 28.935 71.734 65.473l6.642 5.748 19.035 15.586 5.748 3.642 8.24 7.73 6.387 5.877c9.325 9.006 18.46 18.205 26.955 27.978l2.235 2.619c9.325 10.988 17.949 22.357 25.934 34.046l0.766 1.15c8.112 12.073 15.457 24.592 22.228 37.559l0.766 1.341c6.516 12.457 12.073 25.295 17.119 38.389l1.341 3.449c4.536 12.137 8.367 24.656 11.625 37.239l1.724 6.387c2.874 11.818 4.918 23.89 6.642 36.026l1.405 8.431c1.598 14.756 2.554 29.638 2.554 44.65-0.056 211.304-171.946 383.258-383.312 383.258zM367.736 1.857l115.169-58.893c9.135-4.598 19.099-6.962 29.064-6.962 9.838 0 19.738 2.235 28.808 6.835l116.829 59.022h-289.871zM673.894 129.609h-319.38c-17.63 0-31.938-14.372-31.938-31.938s14.308-31.938 31.938-31.938h319.38c17.566 0 31.938 14.372 31.938 31.938s-14.308 31.938-31.938 31.938z" />
<glyph unicode="&#xe937;" glyph-name="delicious-logo-button" d="M831.999 960h-640c-106.047 0-191.999-85.952-191.999-191.999v-640c0-106.049 85.952-191.999 191.999-191.999h640c106.049 0 191.999 85.952 191.999 191.999v640c0.002 106.047-85.95 191.999-191.999 191.999zM831.999 447.297v-296.576c0-12.481-10.24-22.72-22.72-22.72h-585.278c-17.664 0-31.999 14.4-31.999 31.999v585.216c0 12.543 10.24 22.785 22.785 22.785h585.216c17.6 0 31.999-14.335 31.999-31.999v-288.704zM512.385 704h255.615v-256.705h-255.615v256.705zM256 447.297h256.385v-255.295h-256.385v255.295z" />
<glyph unicode="&#xe938;" glyph-name="delicious-logo-in-a-circle" d="M512 960c-282.752 0-512-229.248-512-512s229.248-512 512-512 512 229.248 512 512c0 282.816-229.248 512-512 512zM831.999 447.297v-296.576c0-12.481-10.24-22.72-22.72-22.72h-585.278c-17.664 0-31.999 14.4-31.999 31.999v585.216c0 12.543 10.24 22.785 22.785 22.785h585.216c17.6 0 31.999-14.335 31.999-31.999v-288.704zM256 447.297h256.385v-255.295h-256.385v255.295zM512.385 704h255.615v-256.705h-255.615v256.705z" />
<glyph unicode="&#xe939;" glyph-name="delicious-social-button" d="M959.999 960h-914.431c-25.089 0-45.568-20.479-45.568-45.632v-914.367c0-35.328 28.673-63.999 63.999-63.999h914.431c25.089 0 45.568 20.479 45.568 45.632v914.367c0.002 35.326-28.671 63.999-63.999 63.999zM959.999 446.528h-447.232v-446.527h-448.768v447.999h448.001v448.001h447.999v-449.473z" />
<glyph unicode="&#xe93a;" glyph-name="deviantart-logo-square" d="M831.999 960h-640c-106.047 0-191.999-85.952-191.999-191.999v-640c0-106.049 85.952-191.999 191.999-191.999h640c106.049 0 191.999 85.952 191.999 191.999v640c0.002 106.047-85.95 191.999-191.999 191.999zM547.328 366.72l-80.96 145.855c35.072 6.017 65.344 7.551 91.776 6.017l45.888-73.409 110.207 26.687c-43.328 42.368-122.303 82.177-266.816 56.448l-9.472-1.728 89.343-165.376-321.729-88.385c-6.975 10.751-12.608 22.271-16.768 34.368-20.799 60.223-3.711 122.048 39.553 171.135 26.176 29.376 62.527 53.824 106.752 70.912l-27.072 56.703c24.064 7.68 50.113 13.439 77.761 17.153l28.415-52.672 9.279 1.472c85.568 12.928 169.152 13.695 246.272-4.416 78.657-15.487 150.785-49.857 184.127-88.447 6.655-7.745 11.84-15.807 15.232-24.064l-321.787-88.254zM297.472 371.073l110.080 26.687-49.217 102.911c-62.847-33.663-70.783-84.287-60.864-129.599z" />
<glyph unicode="&#xe93b;" glyph-name="deviantart-logo" d="M561.863 553.086c-39.039 2.304-84.094-0.064-136.254-8.961l120.318-216.893 478.073 131.262c-5.183 12.287-12.672 24.257-22.656 35.775-49.407 57.279-156.733 108.351-273.531 131.389-114.686 26.88-238.844 25.729-366.011 6.528l-13.695-2.177-42.239 78.271c-41.151-5.503-79.743-14.080-115.582-25.471l40.255-84.223c-65.79-25.471-119.742-61.759-158.654-105.407-64.256-72.959-89.662-164.798-58.815-254.333 6.208-17.92 14.591-35.136 24.959-51.135l478.073 131.262-132.734 245.884 13.953 2.624c214.652 38.272 332.028-20.864 396.346-83.839l-163.582-39.679-68.225 109.122zM174.731 333.633c-14.72 67.391-3.008 142.589 90.431 192.637l73.215-153.022-163.646-39.615z" />
<glyph unicode="&#xe93c;" glyph-name="deviantart-social-buttton" d="M512 960c-282.752 0-512-229.248-512-512s229.248-512 512-512 512 229.248 512 512c0 282.816-229.248 512-512 512zM547.328 366.72l-80.96 145.855c35.072 6.017 65.344 7.551 91.776 6.017l45.888-73.409 110.207 26.687c-43.328 42.368-122.303 82.177-266.816 56.448l-9.472-1.728 89.343-165.376-321.729-88.385c-6.975 10.751-12.608 22.271-16.768 34.368-20.799 60.223-3.711 122.048 39.553 171.135 26.176 29.376 62.527 53.824 106.752 70.912l-27.072 56.703c24.064 7.68 50.113 13.439 77.761 17.153l28.415-52.672 9.279 1.472c85.568 12.928 169.152 13.695 246.272-4.416 78.657-15.487 150.785-49.857 184.127-88.447 6.655-7.745 11.84-15.807 15.232-24.064l-321.787-88.254zM297.472 371.073l110.080 26.687-49.217 102.911c-62.847-33.663-70.783-84.287-60.864-129.599z" />
<glyph unicode="&#xe93d;" glyph-name="document-page-with-text-lines" d="M896 960h-768c-35.328 0-64.001-28.673-64.001-63.999v-896c0-35.328 28.673-63.999 63.999-63.999h768c35.328 0 63.999 28.673 63.999 63.999v896c0.002 35.326-28.669 63.999-63.997 63.999zM896 0.001h-768v896h768v-896zM480.001 704h256c17.6 0 31.999 14.335 31.999 31.999s-14.4 31.999-31.999 31.999h-256c-17.664 0-31.999-14.335-31.999-31.999s14.335-31.999 31.999-31.999zM287.999 512.001h447.999c17.6 0 31.999 14.335 31.999 31.999s-14.4 31.999-31.999 31.999h-447.999c-17.664 0-31.999-14.335-31.999-31.999s14.335-31.999 31.999-31.999zM287.999 320h447.999c17.6 0 31.999 14.4 31.999 31.999s-14.4 31.999-31.999 31.999h-447.999c-17.664 0-31.999-14.4-31.999-31.999s14.335-31.999 31.999-31.999zM287.999 128.001h447.999c17.6 0 31.999 14.4 31.999 31.999s-14.4 31.999-31.999 31.999h-447.999c-17.664 0-31.999-14.4-31.999-31.999s14.335-31.999 31.999-31.999z" />
<glyph unicode="&#xe93e;" glyph-name="documents-button" d="M896 832h-63.999v64.001c-0.002 35.327-28.674 63.999-64.001 63.999h-640c-35.329 0-64.001-28.672-64.001-63.999v-768c0-35.329 28.672-63.999 63.999-63.999h63.999v-63.999c0-35.329 28.672-63.999 63.999-63.999h640c35.329 0 63.999 28.672 63.999 63.999v767.998c0.004 35.327-28.668 63.999-63.995 63.999zM128 128.001v768h640v-768h-640zM896 0.001h-640v63.999h512c35.329 0 63.999 28.672 63.999 63.999v640.002h63.999v-768zM671.998 768.001h-319.999c-17.663 0-32.001-14.335-32.001-32.001s14.335-32.001 32.001-32.001h319.999c17.6 0 32.001 14.335 32.001 32.001s-14.4 32.001-32.001 32.001zM671.998 576h-447.999c-17.663 0-32.001-14.335-32.001-32.001s14.335-32.001 32.001-32.001h447.999c17.6 0 32.001 14.335 32.001 32.001s-14.4 32.001-32.001 32.001zM671.998 448h-447.999c-17.663 0-32.001-14.335-32.001-32.001 0-17.6 14.335-32.001 32.001-32.001h447.999c17.6 0 32.001 14.4 32.001 32.001 0 17.666-14.4 32.001-32.001 32.001zM671.998 320h-447.999c-17.663 0-32.001-14.4-32.001-32.001s14.335-32.001 32.001-32.001h447.999c17.6 0 32.001 14.4 32.001 32.001s-14.4 32.001-32.001 32.001z" />
<glyph unicode="&#xe93f;" glyph-name="double-arrow-left" d="M165.486 447.952l351.995 397.95c26.033 26.033 26.033 68.406 0 94.439s-68.406 26.033-94.439 0l-393.039-444.173c-13.282-13.282-19.526-30.684-19.392-48.082-0.134-17.398 6.11-34.934 19.392-48.216l393.035-444.44c26.033-25.903 68.406-25.903 94.439 0s26.033 68.54 0 94.439l-351.99 398.084zM641.806 447.952l351.727 397.95c26.434 26.166 26.434 68.54 0.267 94.573-25.903 26.033-68.54 26.033-94.439 0l-393.035-444.306c-13.282-13.282-19.659-30.684-19.392-48.082-0.134-17.398 6.11-34.934 19.392-48.216l392.905-444.44c26.166-25.903 68.674-25.903 94.439 0 26.166 25.903 26.166 68.54 0 94.439l-351.865 398.084z" />
<glyph unicode="&#xe940;" glyph-name="double-chat" d="M1024 327.677c0 91.54-51.092 173.145-131.093 227.827 5.641-25.386 8.911-51.475 8.911-78.27 0-206.929-175.646-379.434-406.933-416.486 48.911-19.744 103.656-31.283 162.12-31.283 55.001 0 107.055 10.129 153.915 27.822 59.424-20.256 124.298-25.513 177.953-25.513-27.949 33.461-47.245 66.284-61.092 95.13 59.553 53.076 96.219 123.398 96.219 200.773zM803.866 509.091c0 197.12-180.26 357.445-401.998 357.445s-401.869-160.26-401.869-357.38c0-91.734 40.386-180.389 111.478-246.738-15.962-38.847-37.116-75.58-62.95-109.233-7.628-9.873-8.782-23.334-3.013-34.424 5.577-10.577 16.539-17.181 28.399-17.181h1.539c33.911 1.603 101.349 24.167 172.761 69.489 38.205-6.731 123.785-19.423 153.659-19.423 225.451 0.065 401.994 156.991 401.994 357.445z" />
<glyph unicode="&#xe941;" glyph-name="down-arrow-1" d="M981.292 447.989c-23.466 0-42.665-19.114-42.665-42.665v-323.662l-865.776 865.859c-16.641 16.641-43.691 16.641-60.329 0s-16.641-43.691 0-60.329l865.773-865.859h-323.662c-23.552 0-42.665-19.199-42.665-42.665s19.114-42.665 42.665-42.665h426.656l16.297 3.329c10.326 4.352 18.773 12.63 23.039 23.039l3.329 16.128v426.826c0.003 23.552-19.197 42.665-42.662 42.665z" />
<glyph unicode="&#xe942;" glyph-name="down-arrow-button" d="M874.146 810.043c-200.079 199.943-524.194 199.943-724.138 0s-199.943-524.126 0-724.138c199.943-199.875 524.194-199.875 724.138 0 199.737 200.012 199.737 524.263 0 724.138zM765.812 653.516l-376.132-376.132h207.315c18.772 0 34.131-15.359 34.131-34.131 0-18.703-15.29-34.131-34.131-34.131h-289.707l-13.037 2.663-10.786 7.167-0.273 0.137-0.273 0.41-7.099 10.786-2.663 12.833v289.843c0 18.841 15.29 34.131 34.131 34.131s34.131-15.29 34.131-34.131v-207.315l376.13 376.13c13.312 13.312 34.952 13.312 48.262 0 13.246-13.312 13.312-34.814 0.002-48.262z" />
<glyph unicode="&#xe943;" glyph-name="down-arrow-directional" d="M512 959.965c-282.776 0-512-229.155-512-512s229.293-511.931 512-511.931 512 229.224 512 512-229.224 511.931-512 511.931zM762.686 388.93l-229.429-202.893c-6.856-6.856-15.771-10.079-24.821-10.010-8.984 0-17.965 3.223-24.821 10.010l-229.364 202.893c-13.439 13.439-13.439 35.382 0 48.751 13.439 13.508 35.313 13.508 48.751 0l205.43-181.638 205.43 181.638c13.439 13.508 35.382 13.508 48.751 0 13.443-13.303 13.648-35.108 0.073-48.751zM762.686 634.952l-229.36-202.962c-6.856-6.856-15.771-10.079-24.821-10.010-9.050 0-18.034 3.223-24.89 10.010l-229.36 202.962c-13.439 13.439-13.439 35.313 0 48.751s35.313 13.439 48.751 0l205.43-181.707 205.43 181.707c13.439 13.439 35.382 13.439 48.751 0 13.439-13.37 13.644-35.244 0.069-48.751z" />
<glyph unicode="&#xe944;" glyph-name="down-arrow-in-small-circle" d="M512.034 960c-282.734 0-511.966-229.232-511.966-511.966-0.068-282.87 229.164-512.034 511.966-512.034 282.734 0 511.896 229.232 511.896 511.966 0.070 282.802-229.162 512.034-511.896 512.034zM512.034 4.523c-244.46 0-443.374 198.914-443.374 443.374s198.914 443.376 443.374 443.376c244.46 0.068 443.306-198.846 443.306-443.374 0.068-244.392-198.846-443.376-443.306-443.376zM707.863 560.18l-198.298-198.365-198.298 198.365c-13.376 13.376-35.12 13.376-48.493 0s-13.376-35.12 0-48.493l222.44-222.44c6.722-6.859 15.571-10.014 24.35-10.014 8.849 0 17.629 3.362 24.35 10.014l222.373 222.44c13.376 13.376 13.376 35.12 0 48.493s-35.052 13.376-48.425 0z" />
<glyph unicode="&#xe945;" glyph-name="down-arrow-outline-1" d="M798.209 264.934c-16.64 16.554-43.857 16.554-60.325 0l-183.195-183.195v835.599c0 23.55-19.198 42.662-42.662 42.662-23.55 0-42.662-19.112-42.662-42.662v-835.599l-183.109 183.109c-16.64 16.468-43.688 16.468-60.325 0-16.64-16.64-16.64-43.857 0-60.325l256.318-256.318 13.483-8.873c10.409-4.438 22.1-4.438 32.595 0l13.823 9.214 255.977 255.977c16.551 16.64 16.551 43.688 0.083 60.411z" />
<glyph unicode="&#xe946;" glyph-name="down-arrow-outline" d="M1004.123 718.115c-26.666 26.666-70.146 26.666-96.675 0l-395.455-395.317-395.321 395.317c-26.666 26.666-70.013 26.666-96.675 0s-26.666-70.013 0-96.675l443.452-443.585c13.402-13.535 31.042-19.963 48.544-19.963 17.64 0 35.142 6.565 48.544 19.963l443.448 443.585c26.666 26.662 26.666 70.009 0.138 96.675z" />
<glyph unicode="&#xe947;" glyph-name="down-arrow" d="M512.001 960c-282.761 0-512.001-229.24-512.001-512.001 0-282.829 229.24-512.001 512.001-512.001 282.829 0 512.001 229.172 512.001 512.001-0.002 282.761-229.174 512.001-512.001 512.001zM740.967 355.567l-204.799-204.801-11.060-7.372c-8.261-3.551-17.682-3.551-26.009 0l-10.787 7.099-205.072 205.072c-13.313 13.244-13.313 34.953 0 48.264 13.313 13.244 34.953 13.244 48.264 0l146.365-146.5v532.005c0 18.842 15.291 34.133 34.133 34.133 18.773 0 34.133-15.291 34.133-34.133v-532.003l146.5 146.5c13.244 13.244 34.953 13.244 48.264 0 13.382-13.311 13.382-34.885 0.069-48.264z" />
<glyph unicode="&#xe948;" glyph-name="download-archive-tray" d="M512 209.067l341.333 341.333h-204.799v409.6h-273.067l1.228-409.6h-206.027zM785.067 209.067v-136.533h-546.134v136.533h-136.533v-273.067h819.201v273.067z" />
<glyph unicode="&#xe949;" glyph-name="download-folder" d="M959.999 863.999h-319.999c-35.328 0-63.999-28.673-63.999-63.999 0 0-8.321-58.689-63.999-63.999h-448.003c-35.326-0.002-63.999-27.65-63.999-62.978v-577.024c0-35.328 28.673-64.001 63.999-64.001h896c35.328 0 63.999 28.673 63.999 64.001v704.001c0.002 35.328-28.671 63.999-63.999 63.999zM512.191 32.385l-199.808 256h135.807v256c0 35.328 28.673 63.999 63.999 63.999s64.001-28.673 64.001-63.999v-256h135.807l-199.806-256z" />
<glyph unicode="&#xe94a;" glyph-name="download-from-the-cloud" d="M837.311 462.633c59.841 137.279 22.912 224.576-7.040 266.624-45.632 63.808-128.64 98.816-201.471 84.8-126.784-24.192-180.801-110.080-180.801-287.424v-148.097l-74.112 74.112c-12.481 12.481-32.769 12.481-45.248 0-12.481-12.481-12.481-32.769 0-45.248l128.767-128.705c6.464-6.464 14.976-9.408 23.423-9.217 8.447-0.256 16.959 2.753 23.423 9.217l129.343 129.281c12.481 12.481 12.481 32.831 0 45.312-12.416 12.481-32.769 12.481-45.248 0l-76.351-76.351v149.695c0 184.577 63.552 212.096 128.64 224.576 41.792 7.68 102.271-9.857 137.408-59.136 43.008-60.096 34.752-149.248-23.232-250.879-6.144-10.816-5.503-24.192 1.663-34.303 7.104-10.113 19.776-15.232 31.744-13.057 7.745 1.343 30.783 4.863 45.376 4.863 69.76 0 126.399-57.408 126.399-128.064s-57.344-128-128-128l-635.328-0.385c-74.367 11.009-132.672 81.536-132.672 160.384 0 78.657 59.007 146.24 137.344 157.44l27.519 3.969c15.743 2.239 27.457 15.743 27.457 31.679l-0.511 34.047c0.191 114.623 70.848 208.831 168.191 224.001 17.408 2.753 29.376 19.072 26.687 36.544-2.753 17.473-18.687 29.311-36.609 26.687-128.634-20.032-222.075-140.799-222.267-287.103l0.511-6.464c-109.631-15.681-192.319-110.529-192.319-220.801 0-111.744 80.511-207.871 191.999-224.001h640c105.855 0 191.999 86.144 191.999 191.999 0.002 104.706-83.518 190.082-186.687 192.001z" />
<glyph unicode="&#xe94b;" glyph-name="downloading-drawer" d="M896 832c-17.984 40-50.624 63.999-86.017 63.999h-601.984c-35.328 0-63.999-23.999-80-63.999l-128-446.976v-353.023c0-17.6 14.335-31.999 31.999-31.999h959.999c17.6 0 31.999 14.4 31.999 31.999v349.056l-127.998 450.943zM188.479 810.687c2.944 6.593 10.433 21.313 19.521 21.313h601.984c8.768 0 18.88-9.023 25.985-22.785l120.64-425.216h-284.608c-17.6 0-31.999-14.4-31.999-31.999v-96.001h-256v96.001c0 17.6-14.335 31.999-31.999 31.999h-285.696l122.174 426.688zM959.999 64h-896v256h256v-96.001c0-17.6 14.335-31.999 31.999-31.999h319.999c17.6 0 31.999 14.4 31.999 31.999v96.001h256v-256z" />
<glyph unicode="&#xe94c;" glyph-name="dribble-logo-1" d="M831.999 960h-640c-106.047 0-191.999-85.952-191.999-191.999v-640c0-106.049 85.952-191.999 191.999-191.999h640c106.049 0 191.999 85.952 191.999 191.999v640c0.002 106.047-85.95 191.999-191.999 191.999zM512 64.896c-211.264 0-383.168 171.969-383.168 383.104s171.904 383.168 383.168 383.168 383.104-171.904 383.104-383.168-171.84-383.104-383.104-383.104zM494.207 554.431c-54.273 96.448-112.704 177.472-121.345 189.313-91.584-43.2-160.064-127.615-181.248-229.184 14.658-0.191 149.506-0.767 302.593 39.871zM534.847 444.671l12.863 3.84c-8.256 18.625-17.215 37.247-26.496 55.552-163.519-48.896-322.176-46.848-336.447-46.528l-0.129-9.984c0.064-84.031 31.873-160.831 84.16-218.88 7.424 12.674 97.217 161.474 266.048 216zM582.527 525.44c7.616-15.616 14.911-31.488 21.76-47.424l6.975-16.897c108.928 13.695 217.152-8.256 227.903-10.56-0.64 77.247-28.159 148.223-73.727 203.904-6.911-9.279-61.822-79.615-182.911-129.023zM567.872 393.6c-184.577-64.192-250.879-192.319-256.767-204.351 55.487-43.264 125.247-69.055 200.895-69.055 45.376-0.064 88.64 9.217 127.871 25.985-4.863 28.673-23.872 128.832-69.825 248.191l-2.175-0.769zM729.023 692.353c-57.855 51.264-133.824 82.497-217.023 82.497-26.367 0-52.096-3.135-76.671-9.088 9.023-12.161 68.479-93.119 122.112-191.616 116.415 43.582 165.63 109.822 171.582 118.207zM631.232 409.472c42.879-117.567 60.223-213.312 63.616-233.344 73.345 49.599 125.632 128.32 140.161 219.456-11.011 3.52-101.121 30.401-203.777 13.888z" />
<glyph unicode="&#xe94d;" glyph-name="dribble-logo" d="M512 960c-282.305 0-512-229.695-512-512s229.695-512 512-512 512 229.695 512 512-229.697 512-512 512zM850.495 723.903c60.928-74.432 97.728-169.216 98.689-272.448-14.464 3.073-158.912 32.384-304.512 14.080l-9.408 22.592c-9.088 21.313-18.816 42.497-28.991 63.361 161.727 65.984 235.007 159.937 244.222 172.416zM512 884.672c111.103 0 212.672-41.663 289.856-110.207-7.807-11.2-73.6-99.647-229.119-157.952-71.679 131.649-151.103 239.808-163.199 256 32.894 7.934 67.199 12.159 102.462 12.159zM326.080 843.136c11.52-15.807 89.663-124.095 162.112-252.927-204.544-54.335-384.703-53.568-404.288-53.312 28.351 135.745 119.808 248.511 242.176 306.239zM74.623 447.36l0.191 13.377c19.136-0.447 231.105-3.135 449.409 62.209 12.608-24.513 24.513-49.408 35.519-74.241l-17.279-5.183c-225.473-72.895-345.472-271.681-355.456-288.575-69.758 77.503-112.319 180.030-112.384 292.413zM511.936 10.049c-101.057 0-194.24 34.432-268.416 92.287 7.872 16.001 96.448 187.136 343.104 273.088l2.88 0.961c61.44-159.488 86.719-293.247 93.312-331.648-52.416-22.336-110.207-34.752-170.879-34.688zM756.351 84.801c-4.48 26.625-27.839 154.623-84.927 311.807 137.023 21.951 257.408-14.015 272.383-18.751-19.583-121.601-89.279-226.753-187.456-293.056z" />
<glyph unicode="&#xe94e;" glyph-name="earphones" d="M959.999 320v128c0 294.143-225.344 447.999-447.999 447.999-217.216 0-447.999-156.991-447.999-447.999v-128c-35.328 0-64.001-28.671-64.001-63.999v-128c0-35.328 28.673-64.001 63.999-64.001 0-35.328 28.673-63.999 63.999-63.999s63.999 28.673 63.999 63.999v256c0 35.328-28.673 63.999-63.999 63.999v64.001c0 252.095 193.215 384 384 384 185.024 0 384-120.128 384-384v-63.999c-35.328 0-64.001-28.673-64.001-63.999v-256c0-35.328 28.673-63.999 64.001-63.999s63.999 28.673 63.999 63.999c35.328 0 63.999 28.673 63.999 64.001v128c0.004 35.326-28.669 63.997-63.997 63.997z" />
<glyph unicode="&#xe94f;" glyph-name="edition-box" d="M677.435 282.565l-56.962 172.098-328.965 328.967-115.139-115.139 328.967-328.965zM138.994 936.144c-31.809 31.809-83.329 31.809-115.139 0s-31.809-83.329 0-115.139l84.738-84.738 115.139 115.139-84.738 84.738zM959.998 768.013h-453.701l64-64h389.701v-704.011h-704.011v389.638l-64 64v-453.638c0-35.393 28.673-64 64-64h704.011c35.393 0 64 28.609 64 64v704.011c0.002 35.327-28.67 64-64 64z" />
<glyph unicode="&#xe950;" glyph-name="edition-pencil" d="M950.085 159.078l-596.797 596.728-36.922-36.851-112.172-112.243 596.728-596.797 223.078-73.915zM180.073 929.092c-41.213 41.213-107.952 41.213-149.165 0-41.213-41.142-41.213-108.023 0-149.165l73.844-73.844 149.165 149.165-73.844 73.844z" />
<glyph unicode="&#xe951;" glyph-name="email-envelope" d="M959.999 832h-896c-35.327 0-63.999-28.672-63.999-63.999v-640c0-35.329 28.672-63.999 63.999-63.999h896c35.329 0 63.999 28.672 63.999 63.999v640c0.002 35.327-28.67 63.999-63.999 63.999zM63.999 585.92l245.631-166.975-245.631-245.697v412.672zM109.248 128.001l254.272 254.272 148.609-100.991 147.775 101.76 254.848-254.977-805.504-0.063zM959.999 173.248l-246.657 246.657 246.657 169.664v-416.321zM959.999 664.448l-1.343 1.92-446.656-307.647-448.001 304.512v104.768h896v-103.553z" />
<glyph unicode="&#xe952;" glyph-name="error-advice-sign" d="M1016.442 59.861l-446.658 836.92c-11.137 20.922-32.963 34.056-56.717 34.056h-0.065c-23.756 0-45.515-13.069-56.717-33.992l-448.656-836.92c-10.687-20.151-10.108-44.229 1.481-63.478 11.653-19.379 32.64-31.287 55.236-31.287h895.247c22.66 0 43.52 11.846 55.173 31.287 11.781 19.379 12.233 43.457 1.675 63.413zM64.347 29.54l448.656 836.92 446.658-836.92h-895.314zM448.623 543.537v-193.135c0-35.602 28.842-64.38 64.378-64.38 35.472 0 64.378 28.778 64.378 64.38v193.135c0 35.537-28.905 64.378-64.378 64.378s-64.378-28.776-64.378-64.378zM577.38 158.297c0-35.555-28.823-64.378-64.378-64.378s-64.378 28.823-64.378 64.378c0 35.555 28.823 64.378 64.378 64.378s64.378-28.823 64.378-64.378z" />
<glyph unicode="&#xe953;" glyph-name="error-advise" d="M1005.247 678.785l-262.399 262.464c-12.032 12.032-28.288 18.751-45.376 18.751h-371.008c-16.959 0-33.28-6.72-45.248-18.751l-262.399-262.464c-12.096-11.969-18.816-28.224-18.816-45.248v-371.137c0-16.959 6.72-33.28 18.751-45.248l262.399-262.464c12.032-11.967 28.288-18.689 45.312-18.689h371.137c16.959 0 33.28 6.72 45.248 18.751l262.399 262.528c12.032 11.967 18.751 28.159 18.751 45.248v371.010c0.002 16.959-6.718 33.278-18.751 45.248zM512 64c-35.328 0-63.999 28.673-63.999 64.001s28.673 63.999 63.999 63.999 63.999-28.673 63.999-63.999c0-35.328-28.671-64.001-63.999-64.001zM575.999 384.001c0-35.328-28.673-63.999-63.999-63.999s-63.999 28.673-63.999 63.999v384c0 35.328 28.673 63.999 63.999 63.999s63.999-28.673 63.999-63.999v-384z" />
<glyph unicode="&#xe954;" glyph-name="error-triangle" d="M1016.431 59.866l-446.654 836.911c-11.137 20.923-32.962 34.055-56.717 34.055h-0.064c-23.755 0-45.514-13.069-56.717-33.992l-448.649-836.909c-10.686-20.087-10.108-44.163 1.48-63.477 11.652-19.377 32.641-31.287 55.237-31.287h895.238c22.662 0 43.583 11.847 55.237 31.287 11.652 19.377 12.232 43.454 1.609 63.411zM512.996 93.923c-35.538 0-64.377 28.841-64.377 64.377s28.841 64.377 64.377 64.377c35.472 0 64.377-28.841 64.377-64.377s-28.839-64.377-64.377-64.377zM577.439 350.403c0-35.601-28.905-64.377-64.377-64.377-35.538 0-64.377 28.778-64.377 64.377v257.512c0 35.538 28.841 64.377 64.377 64.377 35.472 0 64.377-28.841 64.377-64.377v-257.512z" />
<glyph unicode="&#xe955;" glyph-name="exclamation-button" d="M512 960c-282.752 0-512-229.248-512-512s229.248-512 512-512 512 229.248 512 512-229.248 512-512 512zM512 129.024c-35.328 0-63.999 28.673-63.999 63.999 0 35.393 28.673 63.999 63.999 63.999s63.999-28.608 63.999-63.999c0-35.326-28.671-63.999-63.999-63.999zM575.999 384.001c0-35.328-28.673-63.999-63.999-63.999s-63.999 28.673-63.999 63.999v319.999c0 35.328 28.673 63.999 63.999 63.999s63.999-28.673 63.999-63.999v-319.999z" />
<glyph unicode="&#xe956;" glyph-name="expand-arrows" d="M981.334 448c-23.466 0-42.666-19.114-42.666-42.666v-323.669l-793.003 793.003h323.669c23.552 0 42.666 19.114 42.666 42.666s-19.114 42.666-42.666 42.666h-426.668l-16.297-3.329-13.57-8.96-0.341-0.169-0.255-0.513-8.874-13.398-3.329-16.297v-426.665c0-23.552 19.114-42.666 42.666-42.666s42.666 19.114 42.666 42.666v323.667l793.003-793.003h-323.669c-23.466 0-42.666-19.2-42.666-42.666s19.2-42.666 42.666-42.666h426.665l16.297 3.329c10.326 4.352 18.773 12.63 23.039 23.039l3.329 16.128v426.837c0.003 23.552-19.197 42.666-42.663 42.666z" />
<glyph unicode="&#xe957;" glyph-name="expand-interface" d="M959.999 960h-896c-35.326 0-63.999-28.673-63.999-63.999v-896c0-35.328 28.673-63.999 63.999-63.999h896c35.328 0 63.999 28.673 63.999 63.999v896c0.002 35.326-28.671 63.999-63.999 63.999zM415.999 64h-256l-12.223 2.497-10.113 6.72-0.256 0.129-0.256 0.385-6.655 10.113-2.497 12.032v256.125c0 17.6 14.335 31.999 31.999 31.999s31.999-14.4 31.999-31.999v-178.751l201.345 201.345c12.481 12.352 32.769 12.352 45.248 0 12.481-12.481 12.481-32.896 0-45.248l-201.345-201.345h178.751c17.664 0 31.999-14.4 31.999-31.999 0.002-17.602-14.333-32.002-31.997-32.002zM896 544.001c0-17.664-14.4-31.999-31.999-31.999s-31.999 14.335-31.999 31.999v178.751l-201.345-201.407c-12.352-12.481-32.769-12.481-45.248 0-12.352 12.481-12.352 32.769 0 45.248l201.345 201.407h-178.751c-17.6 0-31.999 14.335-31.999 31.999s14.4 31.999 31.999 31.999h256l12.223-2.497c7.745-3.264 14.080-9.472 17.279-17.279l2.497-12.223v-255.998z" />
<glyph unicode="&#xe958;" glyph-name="expand" d="M1021.503 460.169l-6.849 10.368-128 128c-12.416 12.481-32.831 12.481-45.248 0s-12.416-32.769 0-45.248l73.345-73.345h-805.503l73.345 73.345c12.481 12.481 12.481 32.769 0 45.248s-32.769 12.481-45.248 0l-128.002-128-0.191-0.32-6.655-10.048-2.497-12.161v-0.129l2.497-12.096 6.655-9.984 0.191-0.385 128-128c12.481-12.416 32.769-12.416 45.248 0s12.481 32.831 0 45.248l-73.345 73.345h805.503l-73.345-73.345c-12.352-12.352-12.352-32.769 0-45.248 12.481-12.352 32.896-12.352 45.248 0l128 128 6.911 10.368 2.433 12.096v0.129l-2.493 12.161z" />
<glyph unicode="&#xe959;" glyph-name="extent-option-arrows" d="M1020.671 933.631c-4.352 10.409-12.63 18.773-23.039 23.039l-16.297 3.329h-426.668c-23.466 0-42.666-19.114-42.666-42.666s19.2-42.666 42.666-42.666h323.669l-793.003-793.003v323.669c0 23.552-19.114 42.666-42.666 42.666s-42.666-19.114-42.666-42.666v-426.837l3.243-16.128 9.215-13.825 0.341-0.341 13.484-8.874 16.383-3.329h426.665c23.552 0 42.666 19.2 42.666 42.666s-19.114 42.666-42.666 42.666h-323.667l793.001 793.003v-323.669c0-23.552 19.2-42.666 42.666-42.666s42.666 19.114 42.666 42.666v426.668l-3.327 16.297z" />
<glyph unicode="&#xe95a;" glyph-name="facebook-logo-button" d="M512 960c-282.752 0-512-229.248-512-512s229.248-512 512-512 512 229.248 512 512c0 282.815-229.248 512-512 512zM644.352 448.065l-83.905-0.063-0.063-307.199h-115.137v307.197h-76.799v105.856l76.799 0.063-0.128 62.336c0 86.399 23.424 138.943 125.12 138.943h84.736v-105.92h-52.992c-39.615 0-41.535-14.783-41.535-42.367l-0.128-52.992h95.231l-11.198-105.854z" />
<glyph unicode="&#xe95b;" glyph-name="facebook-logotype-button" d="M831.999 960h-640c-106.048 0-191.999-85.951-191.999-191.999v-640c0-106.048 85.951-191.999 191.999-191.999h640c106.048 0 191.999 85.953 191.999 191.999v640c0.002 106.048-85.951 191.999-191.999 191.999zM644.352 448.065l-83.905-0.063-0.063-307.199h-115.137v307.197h-76.799v105.856l76.799 0.063-0.128 62.336c0 86.399 23.424 138.943 125.12 138.943h84.736v-105.92h-52.992c-39.615 0-41.535-14.783-41.535-42.367l-0.128-52.992h95.231l-11.198-105.854z" />
<glyph unicode="&#xe95c;" glyph-name="facebook-social-symbol" d="M575.679 624.512l0.257 88.319c0 46.015 3.2 70.656 69.119 70.656h121.983v176.512h-174.784c-169.601 0-208.639-87.616-208.639-231.551l0.192-103.936-128.703-0.063v-176.447h128.703v-512h191.936l0.128 512 174.272 0.063 18.752 176.447h-193.216z" />
<glyph unicode="&#xe95d;" glyph-name="fast-forward-button-1" d="M994.089 496.168l-393.035 444.306c-26.033 26.033-68.674 26.033-94.439 0-26.033-26.033-26.033-68.406 0-94.439l351.861-397.95-351.861-397.95c-26.033-26.033-26.033-68.674 0-94.439 25.903-26.033 68.406-26.033 94.439 0l393.035 444.306c13.282 13.282 19.392 30.684 19.392 48.082s-6.24 34.797-19.392 48.082zM536.898 447.952c0.267 17.402-6.11 34.934-19.392 48.082l-392.905 444.44c-26.033 26.033-68.54 26.033-94.439 0-26.033-26.033-26.033-68.406 0-94.439l351.861-397.95-351.861-397.954c-26.166-26.166-26.166-68.406-0.134-94.706 25.903-25.903 68.406-25.903 94.439 0l393.035 444.44c13.286 13.286 19.659 30.684 19.396 48.087z" />
<glyph unicode="&#xe95e;" glyph-name="fast-forward-button-outline" d="M512.001 960c-282.761 0-512.001-229.24-512.001-512.001 0-282.829 229.24-512.001 512.001-512.001 282.829 0 512.001 229.172 512.001 512.001-0.002 282.761-229.174 512.001-512.001 512.001zM512.001 4.266c-244.667 0-443.733 199.066-443.733 443.733s199.064 443.735 443.733 443.735 443.733-199.066 443.733-443.733-199.066-443.735-443.733-443.735zM573.099 699.836c-13.313 13.379-35.226 13.379-48.47 0-13.448-13.379-13.448-35.157 0-48.537l180.839-204.526-180.839-204.526c-13.448-13.379-13.448-35.295 0-48.537 13.313-13.379 35.157-13.379 48.47 0l202 228.351c6.895 6.895 10.035 15.77 9.966 24.712 0.069 8.875-3.14 17.886-9.966 24.643l-202 228.42zM540.195 446.77c0.137 8.875-3.14 17.955-9.966 24.643l-202.003 228.422c-13.379 13.379-35.157 13.379-48.537 0s-13.379-35.157 0-48.537l180.908-204.526-180.908-204.526c-13.379-13.379-13.379-35.295 0-48.537 13.379-13.379 35.157-13.379 48.537 0l202.069 228.351c6.76 6.757 10.035 15.699 9.9 24.71z" />
<glyph unicode="&#xe95f;" glyph-name="fast-forward-button" d="M512.033 960c-282.752 0-511.999-229.247-511.999-511.999s229.247-512.001 511.999-512.001 511.932 229.247 511.932 511.999-229.178 512.001-511.932 512.001zM512.033 4.597c-244.476 0-443.404 198.928-443.404 443.404s198.93 443.404 443.404 443.404 443.335-198.928 443.335-443.404c0.069-244.407-198.79-443.404-443.335-443.404zM448.308 697.277c-13.377 13.377-35.122 13.377-48.497 0-13.377-13.377-13.377-35.122 0-48.497l198.31-198.31-198.31-198.31c-13.377-13.377-13.377-35.122 0-48.497 13.377-13.377 35.122-13.377 48.497 0l222.457 222.388c6.79 6.79 10.084 15.639 10.014 24.352 0 8.849-3.224 17.629-10.014 24.352l-222.457 222.522z" />
<glyph unicode="&#xe960;" glyph-name="film-strip-silhouette" d="M959.999 960h-896c-35.326 0-63.999-28.673-63.999-63.999v-896c0-35.328 28.673-63.999 63.999-63.999h896c35.328 0 63.999 28.673 63.999 63.999v896c0.002 35.326-28.671 63.999-63.999 63.999zM191.999 0.001h-128v128h128v-128zM191.999 256.001h-128v128h128v-128zM191.999 512.001h-128v128h128v-128zM191.999 768.001h-128v128h128v-128zM768 0.001h-512v319.999h512v-319.999zM768 384.001h-512v512h512v-512zM959.999 0.001h-128v128h128v-128zM959.999 256.001h-128v128h128v-128zM959.999 512.001h-128v128h128v-128zM959.999 768.001h-128v128h128v-128z" />
<glyph unicode="&#xe961;" glyph-name="flickr-circle-logo" d="M512 960c-282.752 0-512-229.248-512-512s229.248-512 512-512 512 229.248 512 512c0 282.816-229.248 512-512 512zM323.583 319.744c-71.744 0-129.857 58.111-129.857 129.857s58.111 129.857 129.857 129.857 129.857-58.111 129.857-129.857-58.113-129.857-129.857-129.857zM701.76 319.744c-71.744 0-129.857 58.111-129.857 129.857s58.111 129.857 129.857 129.857 129.857-58.111 129.857-129.857-58.113-129.857-129.857-129.857z" />
<glyph unicode="&#xe962;" glyph-name="flickr" d="M831.999 960h-640c-106.047 0-191.999-85.952-191.999-191.999v-640c0-106.049 85.952-191.999 191.999-191.999h640c106.049 0 191.999 85.952 191.999 191.999v640c0.002 106.047-85.95 191.999-191.999 191.999zM323.583 319.744c-71.744 0-129.857 58.111-129.857 129.857s58.111 129.857 129.857 129.857 129.857-58.111 129.857-129.857-58.113-129.857-129.857-129.857zM701.76 319.744c-71.744 0-129.857 58.111-129.857 129.857s58.111 129.857 129.857 129.857 129.857-58.111 129.857-129.857-58.113-129.857-129.857-129.857z" />
<glyph unicode="&#xe963;" glyph-name="folded-map" d="M0 82.286l295.644-139.117v877.714l-295.644 139.117zM368.785-55.881l291.036 131.145v877.788l-291.036-131.145zM732.964 951.515v-877.714l291.036-137.801v877.714z" />
<glyph unicode="&#xe964;" glyph-name="four-squares" d="M341.333 960h-256.001c-47.101 0-85.332-38.231-85.332-85.332v-255.999c0-47.104 38.231-85.332 85.332-85.332h255.999c47.104 0 85.332 38.231 85.332 85.332v255.999c0.003 47.101-38.225 85.332-85.329 85.332zM938.665 960h-255.999c-47.104 0-85.332-38.231-85.332-85.332v-255.999c0-47.104 38.231-85.332 85.332-85.332h255.999c47.104 0 85.332 38.231 85.332 85.332v255.999c0.003 47.101-38.228 85.332-85.332 85.332zM341.333 362.668h-256.001c-47.101 0-85.332-38.231-85.332-85.335v-255.999c0-47.104 38.231-85.332 85.332-85.332h255.999c47.104 0 85.332 38.231 85.332 85.332v255.999c0.003 47.104-38.225 85.335-85.329 85.335zM938.665 362.668h-255.999c-47.104 0-85.332-38.231-85.332-85.332v-255.999c0-47.104 38.231-85.332 85.332-85.332h255.999c47.104 0 85.332 38.231 85.332 85.332v255.996c0.003 47.104-38.228 85.335-85.332 85.335z" />
<glyph unicode="&#xe965;" glyph-name="gear-settings" d="M1020.768 391.716c1.919 18.43 3.2 37.245 3.2 56.317 0 19.070-1.281 37.885-3.264 56.38l-139.896 49.789c-8.127 28.031-19.199 54.717-33.087 79.739l63.613 133.815c-23.615 29.438-50.365 56.189-79.804 79.804l-134.009-63.613c-24.894 13.823-51.644 24.831-79.548 32.894l-49.657 139.894c-18.43 2.048-37.245 3.264-56.315 3.264s-37.885-1.216-56.38-3.264l-49.789-139.896c-28.031-8.064-54.781-19.070-79.675-32.894l-133.882 63.613c-29.436-23.615-56.189-50.365-79.802-79.804l63.613-133.815c-13.823-24.958-24.831-51.708-32.894-79.739l-139.961-49.787c-1.983-18.495-3.2-37.309-3.2-56.38s1.216-37.885 3.264-56.38l139.959-49.789c8.064-28.031 19.006-54.652 32.894-79.675l-63.613-133.88c23.615-29.438 50.365-56.253 79.804-79.804l133.815 63.613c24.958-13.823 51.708-24.831 79.739-32.958l49.789-139.959c18.43-1.919 37.245-3.2 56.317-3.2s37.885 1.281 56.38 3.264l49.789 140.023c28.031 8.064 54.652 19.006 79.675 32.894l133.88-63.613c29.438 23.615 56.253 50.365 79.804 79.804l-63.613 133.88c13.823 25.087 24.831 51.837 32.958 79.675l139.894 49.787zM512.001 192.047c-141.368 0-255.984 114.616-255.984 255.984s114.616 255.984 255.984 255.984 255.984-114.616 255.984-255.984-114.618-255.984-255.984-255.984zM639.993 448.031c0-70.688-57.304-127.992-127.992-127.992s-127.992 57.304-127.992 127.992c0 70.688 57.304 127.992 127.992 127.992s127.992-57.304 127.992-127.992z" />
<glyph unicode="&#xe966;" glyph-name="gift-box" d="M0 640.001v-128h447.999v191.999h-384c-35.327 0-63.999-28.672-63.999-63.999zM896 864.001c0 52.992-39.617 95.999-128 95.999-82.753 0-147.903-37.247-191.999-80.448-19.329 11.457-41.601 18.432-65.856 18.432-23.169 0-44.607-6.529-63.424-17.152-44.034 42.687-108.802 79.168-190.721 79.168-88.385 0-128-43.007-128-95.999s39.615-95.999 128-95.999h256l-0.063 0.512h0.192l-0.128-0.512h256c88.383 0 128 43.007 128 95.999zM397.632 832h-141.632c-29.184 0-63.999 5.569-63.999 32.001s34.815 32.001 63.999 32.001c63.616 0 111.871-28.48 144.383-59.007l-2.752-4.994zM621.183 834.688c32.512 31.615 81.793 61.313 146.815 61.313 29.184 0 63.999-5.569 63.999-32.001s-34.815-32.001-63.999-32.001h-145.343l-1.472 2.688zM63.999 0.001c0-35.329 28.672-63.999 63.999-63.999h319.999v511.998h-383.998v-447.999zM959.999 704h-381.312v-191.999h445.313v128c0 35.327-28.672 63.999-64.001 63.999zM578.687-64h317.313c35.329 0 63.999 28.672 63.999 63.999v448.001h-381.312v-512z" />
<glyph unicode="&#xe967;" glyph-name="gift" d="M959.999 704h-896c-35.326 0-63.999-28.671-63.999-63.999v-191.999h63.999v-447.999c0-35.328 28.673-63.999 63.999-63.999h768c35.328 0 63.999 28.673 63.999 63.999v447.997h63.999v191.999c0.004 35.33-28.669 64.001-63.997 64.001zM447.999 0.001h-319.999v447.999h319.999v-447.999zM447.999 512.001h-384v128h384v-128zM896 0.001h-318.656v447.999h318.656v-447.999zM959.999 512.001h-382.655v128h382.655v-128zM256 768.001h256l-0.064 0.511h0.191l-0.129-0.511h256c88.385 0 128 43.008 128 96.001s-39.615 95.998-127.998 95.998c-82.752 0-147.903-37.247-191.999-80.449-19.327 11.456-41.601 18.431-65.856 18.431-23.167 0-44.607-6.528-63.423-17.153-44.035 42.69-108.802 79.17-190.722 79.17-88.385 0-128-43.008-128-96.001s39.615-95.998 128-95.998zM768 896.001c29.184 0 63.999-5.568 63.999-31.999s-34.817-31.999-63.999-31.999h-145.344l-1.408 2.688c32.447 31.613 81.727 61.311 146.751 61.311zM256 896.001c63.616 0 111.872-28.48 144.383-59.007l-2.753-4.992h-141.631c-29.184 0-63.999 5.568-63.999 31.999s34.815 31.999 63.999 31.999z" />
<glyph unicode="&#xe968;" glyph-name="go-back-arrow" d="M512.001 960c-282.761 0-512.001-229.24-512.001-512.001 0-282.829 229.24-512.001 512.001-512.001 282.829 0 512.001 229.172 512.001 512.001-0.002 282.761-229.174 512.001-512.001 512.001zM621.228 250.64c13.313-13.313 13.313-34.953 0-48.264s-34.953-13.313-48.264 0l-221.39 221.39c-6.691 6.691-9.966 15.429-9.966 24.235s3.278 17.544 9.966 24.235l221.388 221.388c13.313 13.313 34.953 13.313 48.264 0 13.313-13.313 13.313-34.953 0-48.264l-197.359-197.359 197.361-197.361z" />
<glyph unicode="&#xe969;" glyph-name="go-to-back-track-button" d="M512.001 960c-282.761 0-512.001-229.24-512.001-512.001 0-282.829 229.24-512.001 512.001-512.001 282.829 0 512.001 229.172 512.001 512.001-0.002 282.761-229.174 512.001-512.001 512.001zM512.001 4.266c-244.667 0-443.733 199.066-443.733 443.733s199.064 443.735 443.733 443.735 443.733-199.066 443.733-443.733-199.066-443.735-443.733-443.735zM602.521 678.878c-14.814 11.605-38.843 11.605-53.658 0l-264.671-209.033c-14.814-11.605-14.814-30.516 0-42.121l1.366-0.818 263.305-208.554c14.814-11.605 38.843-11.605 53.658 0l0.273 0.477c7.168 5.462 11.605 12.834 11.605 21.299v417.11c0 8.602-4.642 16.178-12.016 21.572l0.137 0.069z" />
<glyph unicode="&#xe96a;" glyph-name="google-drive-logo-1" d="M975.615 386.945l-292.927 507.455h-341.376l292.991-507.455zM292.865 810.431l-292.865-507.455 170.688-295.551 292.8 507.262zM472 322.944l-183.296-321.344h564.608l170.688 321.344z" />
<glyph unicode="&#xe96b;" glyph-name="google-drive-logo" d="M512 960c-282.752 0-512-229.248-512-512s229.248-512 512-512 512 229.248 512 512c0 282.816-229.248 512-512 512zM610.751 704.576l169.472-293.632h-197.504l-169.472 293.632h197.504zM215.809 362.497l169.407 293.503 98.689-171.073-169.407-293.503-98.689 171.073zM709.44 191.424h-326.592l98.689 171.073h326.656l-98.753-171.073z" />
<glyph unicode="&#xe96c;" glyph-name="google-plus-symbol" d="M558.975 880.576h-267.903c-120.064 0-233.088-91.009-233.088-196.415 0-107.712 81.856-194.687 204.095-194.687l24.833 0.767c-7.936-15.167-13.633-32.255-13.633-50.048 0-29.952 16.128-54.208 36.48-73.985l-46.464-0.511c-148.799 0.064-263.296-94.784-263.296-192.96 0-96.832 125.567-157.311 274.304-157.311 169.601 0 263.296 96.256 263.296 193.024 0 77.567-22.912 124.095-93.697 174.144-24.192 17.153-70.527 58.816-70.527 83.328 0 28.735 8.192 42.879 51.456 76.671 44.287 34.623 75.648 83.328 75.648 139.905 0 67.392-30.016 133.121-86.399 154.752h84.927l59.968 43.326zM465.472 225.089c2.112-8.961 3.264-18.111 3.264-27.648 0-78.272-50.368-139.327-194.943-139.327-102.847 0-177.088 65.088-177.088 143.296 0 76.609 92.096 140.352 194.943 139.327 23.999-0.32 46.399-4.096 66.687-10.689 55.807-38.719 95.872-60.672 107.136-104.959zM300.801 516.8c-69.055 2.048-134.655 77.247-146.56 167.871-11.905 90.688 34.368 160.064 103.361 158.016s134.655-74.817 146.56-165.44c11.967-90.686-34.37-162.494-103.361-160.447zM831.999 690.688v189.889h-63.999v-189.889h-192.001v-63.999h192.001v-194.111h63.999v194.111h192.001v63.999z" />
<glyph unicode="&#xe96d;" glyph-name="googleplus-logo" d="M512 960c-282.752 0-512-229.248-512-512s229.248-512 512-512 512 229.248 512 512c0 282.815-229.248 512-512 512zM369.151 103.489c-113.343 0-208.959 46.144-208.959 119.871 0 74.816 87.231 147.072 200.576 147.009l35.392 0.32c-15.489 15.040-27.775 33.535-27.775 56.384 0 13.569 4.352 26.56 10.369 38.144l-18.88-0.64c-93.119 0-155.455 66.239-155.455 148.352 0 80.319 86.079 149.632 177.601 149.632h204.159l-45.824-33.024h-64.704c42.944-16.512 65.793-66.559 65.793-117.888 0-43.072-23.872-80.193-57.601-106.56-32.961-25.792-39.167-36.544-39.167-58.433 0-18.689 35.329-50.432 53.761-63.553 53.952-38.144 71.296-73.536 71.296-132.608-0.004-73.728-71.363-147.007-200.58-147.007zM768 510.784v-127.808h-63.936v127.808h-128.063v65.216h128.063v128h63.936v-128h128v-65.216h-128zM433.216 343.104c-15.489 4.992-32.575 8-50.816 8.192-78.336 0.832-148.48-47.744-148.48-106.176 0-59.647 56.576-109.183 134.912-109.183 110.143 0 148.48 46.592 148.48 106.111 0 7.169-0.897 14.209-2.497 21.055-8.575 33.794-39.104 50.498-81.599 80.001zM468.096 607.681c-9.089 68.993-59.073 124.417-111.617 126.017-52.544 1.537-87.808-51.264-78.719-120.383 9.089-69.056 59.073-126.337 111.68-127.872 52.479-1.602 87.808 53.117 78.656 122.238z" />
<glyph unicode="&#xe96e;" glyph-name="half-black-and-half-white-star-shape" d="M1020.859 568.358c-7.56 23.193-27.743 40.109-51.898 43.568l-276.146 40.109-123.401 250.261c-10.828 21.913-33.061 35.752-57.472 35.752s-46.645-13.839-57.472-35.752l-123.465-250.199-276.146-40.107c-24.155-3.524-44.209-20.439-51.704-43.633-7.56-23.193-1.282-48.63 16.21-65.673l199.839-194.777-47.159-275.057c-4.1-24.026 5.766-48.31 25.499-62.661 11.084-8.136 24.284-12.237 37.609-12.237 10.186 0 20.439 2.435 29.793 7.368l246.993 129.872 246.931-129.808c9.354-4.997 19.669-7.433 29.793-7.433 13.263 0 26.526 4.1 37.738 12.237 19.734 14.351 29.602 38.635 25.437 62.661l-47.157 275.057 199.839 194.777c17.555 17.043 23.899 42.48 16.337 65.673zM735.872 330.269l52.795-308.245-276.724 145.506v706.447l138.393-280.44 309.463-44.977-223.927-218.291z" />
<glyph unicode="&#xe96f;" glyph-name="half-star" d="M614.874 622.923l-372.048-54.052 269.174-262.384-63.558-370.486 332.732 174.923v849.077z" />
<glyph unicode="&#xe970;" glyph-name="hard-cover-book" d="M958.527 960h-765.183c-88.32 0-159.808-70.976-161.089-158.977l-0.256 0.32v-703.999c0-89.152 72.255-161.345 161.345-161.345h605.183c35.264 0 63.999 28.673 63.999 63.999v672.002c0 17.664-14.4 31.999-31.999 31.999h-637.185c-53.695 0-97.344 41.025-97.344 94.655 0 53.697 42.304 97.344 96.001 97.344h736.001v-736.001c0-17.6 12.799-31.999 30.527-31.999s33.472 14.4 33.472 31.999v768.002c0 17.664-15.807 31.999-33.472 31.999z" />
<glyph unicode="&#xe971;" glyph-name="high-volume-outline" d="M546.368 959.809l-4.736 0.191c-10.56 0-22.656-3.264-36.544-11.647 0 0-266.88-232.833-278.465-244.353h-146.623c-35.328 0-63.999-28.673-63.999-63.999v-392.127c0-35.393 28.673-64.001 63.999-64.001h146.625c11.585-11.52 278.465-236.097 278.465-236.097 13.888-8.512 25.985-11.776 36.544-11.776l4.736 0.191c23.679 2.239 40.576 22.080 45.632 43.008v937.536c-4.994 20.993-21.953 40.832-45.634 43.073zM527.999 11.968c-99.841 84.096-244.48 206.401-256.256 217.281-11.967 12.032-28.224 18.625-45.183 18.625h-146.56v392.127h146.625c16.383 0 32.769 6.849 44.607 18.111 11.647 11.071 156.288 137.599 256.767 225.279v-871.423zM690.624 336.192c-15.807-8-22.145-27.201-14.271-43.008 5.697-11.136 16.959-17.535 28.608-17.535 4.736 0 9.599 1.152 14.4 3.391 64.704 32.704 104.895 97.344 104.895 169.087s-40.191 136.383-104.895 169.025c-15.807 8-35.008 1.601-43.008-14.209-7.872-15.807-1.536-35.008 14.271-43.008 42.944-21.695 69.631-64.512 69.631-111.872s-26.687-90.237-69.631-111.87zM684.096 840.576c-17.088 3.455-34.241-7.936-37.505-25.28-3.455-17.344 7.872-34.176 25.28-37.567 157.696-30.721 272.128-169.407 272.128-329.727s-114.432-299.008-272.128-329.727c-17.344-3.391-28.673-20.097-25.28-37.567 3.008-15.296 16.383-25.791 31.232-25.791l6.273 0.64c187.712 36.48 323.904 201.6 323.904 392.512 0 190.781-136.192 355.899-323.904 392.508z" />
<glyph unicode="&#xe972;" glyph-name="high-volume" d="M546.688 959.781c-11.647 1.087-25.28-1.728-41.343-11.456 0 0-266.883-232.835-278.468-244.291h-146.882c-35.329-0.064-64-28.736-64-64.064v-392.132c0-35.455 28.673-64 64-64h146.882c11.585-11.585 278.468-236.162 278.468-236.162 16.063-9.664 29.696-12.543 41.343-11.456 23.681 2.239 40.321 22.080 45.377 43.009 0.256 2.048 0.256 935.435-0.064 937.483-4.992 20.989-21.696 40.828-45.313 43.069zM690.626 336.157c-15.808-8-22.145-27.201-14.271-43.009 5.697-11.136 16.959-17.6 28.609-17.6 4.801 0 9.664 1.152 14.4 3.391 64.705 32.64 104.896 97.345 104.896 169.027s-40.192 136.385-104.896 169.027c-15.808 8-35.008 1.601-43.009-14.209-7.872-15.808-1.536-35.008 14.271-43.009 42.944-21.633 69.632-64.449 69.632-111.809s-26.688-90.176-69.632-111.809zM684.098 840.547c-17.088 3.456-34.241-7.936-37.441-25.216-3.456-17.409 7.872-34.241 25.216-37.632 157.698-30.721 272.131-169.409 272.131-329.731s-114.431-299.012-272.129-329.733c-17.344-3.391-28.673-20.159-25.28-37.568 3.008-15.296 16.384-25.856 31.297-25.856l6.208 0.64c187.714 36.545 323.907 201.667 323.907 392.516s-136.195 355.97-323.909 392.579z" />
<glyph unicode="&#xe973;" glyph-name="home-interface" d="M1013.036 488.183l-479.986 415.986c-12.031 10.431-29.888 10.431-41.919 0l-171.131-148.219v60.031c0 35.328-28.671 63.997-63.997 63.997s-63.999-28.671-63.999-63.997v-170.939l-180.987-156.859c-13.311-11.583-14.783-31.808-3.2-45.183 11.648-13.311 31.808-14.72 45.183-3.2l458.996 397.812 458.931-397.812c6.143-5.248 13.503-7.808 20.991-7.808 9.023 0 17.791 3.777 24.128 11.008 11.772 13.375 10.238 33.471-3.010 45.183zM552.505 673.393c-11.711 9.663-26.111 14.591-40.511 14.591s-28.8-4.863-40.574-14.591l-319.99-262.327c-14.848-12.16-23.423-30.271-23.423-49.534v-313.527c0-35.328 28.671-63.997 63.997-63.997h191.993v319.988h255.993v-319.99h191.993c35.263 0 63.997 28.671 63.997 63.997v313.527c0 19.328-8.64 37.374-23.488 49.471l-319.988 262.393z" />
<glyph unicode="&#xe974;" glyph-name="house-outline" d="M1012.013 505.044l-480.045 384.037c-11.713 9.344-28.291 9.344-40.004 0l-171.985-137.613v80.583c0 35.332-28.676 64.005-64.005 64.005s-64.007-28.674-64.007-64.005v-182.993l-179.985-144.015c-13.761-11.072-16.002-31.171-4.992-45.061 11.010-13.761 31.106-16.002 44.932-4.992l76.040 60.807v-451.883c0-35.332 28.676-64.005 64.005-64.005h192.017c35.332 0 64.005 28.676 64.005 64.005v256.025h128.012v-256.025c0-35.332 28.676-64.005 64.005-64.005h192.017c35.332 0 64.007 28.676 64.007 64.005v451.883l76.040-60.805c5.824-4.672 12.994-6.976 19.97-6.976 9.344 0 18.689 4.096 25.091 12.033 10.883 13.761 8.579 33.857-5.119 44.994zM831.964 63.916h-192.017v320.030h-256.025v-320.030h-192.017v503.023l320.030 256.089 320.030-256.025v-503.088z" />
<glyph unicode="&#xe975;" glyph-name="inbox" d="M1023.104 319.489l-127.104 513.023c-17.984 40-50.624 63.999-86.017 63.999h-601.984c-35.328 0-63.999-23.999-80-63.999l-128-512v-289.022c0-17.664 14.335-31.999 31.999-31.999h959.999c17.6 0 31.999 14.335 31.999 31.999v284.991l-0.894 3.008zM948.479 351.488c0-17.6-14.4-31.999-31.999-31.999h-244.48c-17.6 0-31.999-14.464-31.999-31.999v-62.976c0-17.6-14.4-31.999-31.999-31.999l-1.857-1.025h-189.055l-1.087 1.025c-17.664 0-31.999 14.4-31.999 31.999v62.976c0 17.535-14.335 31.999-31.999 31.999h-244.484c-17.664 0-32.513 14.4-32.513 31.999l-0.64 0.511 114.114 459.201c2.944 6.593 10.433 21.313 19.521 21.313h601.984c8.768 0 18.88-9.023 25.985-22.785l112.704-458.112-0.193-0.129z" />
<glyph unicode="&#xe976;" glyph-name="information-button" d="M512 960c-282.752 0-512-229.248-512-512s229.248-512 512-512 512 229.248 512 512-229.248 512-512 512zM575.999 192c0-35.328-28.673-63.999-63.999-63.999s-63.999 28.673-63.999 63.999v320.001c0 35.328 28.673 63.999 63.999 63.999s63.999-28.673 63.999-63.999v-320.001zM512 638.976c-35.328 0-63.999 28.673-63.999 63.999s28.673 63.999 63.999 63.999 63.999-28.673 63.999-63.999-28.671-63.999-63.999-63.999z" />
<glyph unicode="&#xe977;" glyph-name="instagram-logo" d="M977.728 960h-931.521c-25.472 0-46.207-20.672-46.207-46.144v-931.71c0-25.409 20.735-46.144 46.207-46.144h931.518c25.535 0 46.272 20.735 46.272 46.144v931.71c0.002 25.472-20.735 46.144-46.27 46.144zM512 626.689c98.688 0 178.687-79.999 178.687-178.687s-79.999-178.687-178.687-178.687-178.687 79.999-178.687 178.687 79.999 178.687 178.687 178.687zM896 64h-768v448.001h84.288c-4.417-20.672-6.977-42.047-6.977-63.999 0-169.152 137.6-306.687 306.687-306.687 169.152 0 306.687 137.535 306.687 306.687 0 21.952-2.56 43.327-6.912 63.999h84.225v-448.001zM896 640.001h-191.999v191.999h191.999v-191.999z" />
<glyph unicode="&#xe978;" glyph-name="key-outline" d="M991.998 960h-138.495c-7.551 0-14.849-2.688-20.608-7.551l-453.184-382.657c-20.864 4.16-40.511 6.208-59.712 6.208-176.447 0-319.999-143.552-319.999-319.999s143.552-320.001 319.999-320.001 319.999 143.552 319.999 319.999c0 33.6-5.377 66.943-16.001 99.2l97.344 63.296c9.152 5.888 14.656 16.001 14.656 26.816v116.288l121.601 6.399c15.872 0.832 28.735 13.184 30.207 28.991l11.712 123.264 106.24 50.815c11.265 5.377 18.24 16.639 18.24 28.929v128.002c0.004 17.664-14.396 31.999-31.997 31.999zM159.999 160.001c0 35.264 28.735 63.999 63.999 63.999 24.704 0 47.424-14.529 57.984-36.8 3.969-8.512 6.017-17.664 6.017-27.201 0-35.264-28.735-63.999-63.999-63.999s-64.001 28.737-64.001 64.001zM959.999 820.16l-104.448-49.919c-10.113-4.863-17.088-14.656-18.049-25.856l-10.751-113.856-124.351-6.528c-17.088-0.961-30.401-14.976-30.401-31.999v-129.281l-104.448-67.904c-12.992-8.447-18.111-25.089-12.032-39.295 13.633-31.999 20.479-65.473 20.479-99.52 0-141.184-114.816-256-256-256-48.447 0-93.312 14.271-132.031 37.761 11.52-3.391 23.423-5.759 36.033-5.759 70.592 0 128 57.344 128 128 0 19.007-4.096 37.376-12.161 54.529-20.993 44.607-66.496 73.471-115.839 73.471-70.592 0-128-57.344-128-128 0-12.608 2.368-24.513 5.759-36.033-23.488 38.657-37.761 83.584-37.761 132.031 0 141.184 114.816 256 256 256 18.88 0 38.719-2.624 60.672-7.936 9.919-2.433 20.417 0 28.224 6.655l456.32 385.281h94.784v-75.841z" />
<glyph unicode="&#xe979;" glyph-name="laptop-silhouette" d="M990.976 160.001h-30.977v575.999c0 35.328-28.673 63.999-63.999 63.999h-768c-35.328 0-63.999-28.673-63.999-63.999v-575.999h-30.977c-18.24 0-33.024-14.4-33.024-31.999s14.784-31.999 33.024-31.999h957.951c18.24 0 33.024 14.4 33.024 31.999s-14.72 31.999-33.024 31.999zM896 226.688h-768v509.312h768v-509.312z" />
<glyph unicode="&#xe97a;" glyph-name="left-arrow" d="M708.929 526.796h-574.452l169.035 169.035c15.361 15.361 15.361 40.33 0 55.688-15.361 15.361-40.33 15.361-55.688 0l-236.305-236.302c-15.361-15.361-15.361-40.251 0-55.688l236.302-236.302c15.361-15.281 40.33-15.281 55.688 0 15.361 15.281 15.361 40.407 0 55.688l-169.035 169.114h574.454c157.536 0 236.302-145.404 236.302-275.688 0-21.661 17.802-39.383 39.383-39.383 21.661 0 39.383 17.723 39.383 39.383 0.002 173.841-78.764 354.454-315.069 354.454z" />
<glyph unicode="&#xe97b;" glyph-name="left-up-arrow-in-a-circle" d="M874.146 810.043c-200.079 199.943-524.194 199.943-724.138 0s-199.943-524.126 0-724.138c199.943-199.875 524.194-199.875 724.138 0 199.737 200.012 199.737 524.263 0 724.138zM765.812 194.308c-13.243-13.312-34.952-13.312-48.193 0l-376.269 376.13v-207.248c0-18.841-15.29-34.131-34.131-34.131s-34.131 15.222-34.131 34.131v289.643l2.73 13.037 7.371 11.128 0.137 0.137 10.786 7.167 13.175 2.663h289.71c18.772 0 34.131-15.29 34.131-34.131s-15.359-34.131-34.2-34.131h-207.248l376.13-376.13c13.312-13.317 13.312-34.887 0.002-48.266z" />
<glyph unicode="&#xe97c;" glyph-name="levels-adjust" d="M213.333 789.333v128.001c0 23.552-19.114 42.666-42.666 42.666s-42.666-19.114-42.666-42.666v-128.001c-47.104 0-85.332-38.231-85.332-85.332v-85.332c0-47.104 38.231-85.332 85.332-85.332v-554.666c0-23.466 19.114-42.666 42.666-42.666s42.666 19.2 42.666 42.666v554.663c47.104 0 85.332 38.231 85.332 85.332v85.335c0.003 47.101-38.228 85.332-85.332 85.332zM213.333 618.667h-85.332v85.335h85.332v-85.335zM554.666 362.668v554.666c0 23.552-19.2 42.666-42.666 42.666-23.552 0-42.666-19.114-42.666-42.666v-554.666c-47.104 0-85.332-38.231-85.332-85.332v-85.332c0-47.104 38.231-85.332 85.332-85.332v-128.001c0-23.466 19.114-42.666 42.666-42.666 23.466 0 42.666 19.2 42.666 42.666v128.001c47.104 0 85.332 38.231 85.332 85.332v85.329c0.003 47.104-38.228 85.335-85.332 85.335zM554.666 192.001h-85.332v85.332h85.332v-85.332zM895.999 618.667v298.667c0 23.552-19.2 42.666-42.666 42.666s-42.666-19.114-42.666-42.666v-298.667c-47.104 0-85.332-38.231-85.332-85.332v-85.332c0-47.104 38.231-85.332 85.332-85.332v-383.999c0-23.466 19.2-42.666 42.666-42.666s42.666 19.2 42.666 42.666v383.997c47.104 0 85.335 38.231 85.335 85.332v85.332c0 47.107-38.231 85.335-85.335 85.335zM895.999 448h-85.332v85.332h85.332v-85.332z" />
<glyph unicode="&#xe97d;" glyph-name="levels-adjustment" d="M42.666 746.667h554.666c0-47.104 38.231-85.332 85.332-85.332h85.332c47.104 0 85.332 38.231 85.332 85.332h128.001c23.466 0 42.666 19.114 42.666 42.666s-19.2 42.666-42.666 42.666h-128.001c0 47.104-38.231 85.332-85.332 85.332h-85.329c-47.104 0-85.332-38.231-85.332-85.332h-554.669c-23.552 0-42.666-19.114-42.666-42.666s19.114-42.666 42.666-42.666zM682.667 831.999h85.332v-85.332h-85.332v85.332zM981.334 490.666h-554.669c0 47.104-38.231 85.332-85.332 85.332h-85.335c-47.104 0-85.332-38.231-85.332-85.332h-128.001c-23.552 0-42.666-19.114-42.666-42.666s19.114-42.666 42.666-42.666h128.001c0-47.104 38.231-85.332 85.332-85.332h85.332c47.104 0 85.332 38.231 85.332 85.332h554.666c23.466 0 42.666 19.114 42.666 42.666 0.005 23.552-19.194 42.666-42.661 42.666zM341.333 405.334h-85.335v85.332h85.332v-85.332zM981.334 149.333h-298.667c0 47.104-38.231 85.332-85.332 85.332h-85.332c-47.104 0-85.332-38.231-85.332-85.332h-384.005c-23.552 0-42.666-19.2-42.666-42.666s19.114-42.666 42.666-42.666h383.999c0-47.104 38.231-85.335 85.332-85.335h85.332c47.104 0 85.332 38.231 85.332 85.335h298.667c23.466 0 42.666 19.2 42.666 42.666s-19.194 42.666-42.661 42.666zM597.332 64.001h-85.332v85.332h85.332v-85.332z" />
<glyph unicode="&#xe97e;" glyph-name="line-button" d="M512.001 960c-282.761 0-512.001-229.24-512.001-512.001 0-282.829 229.24-512.001 512.001-512.001 282.829 0 512.001 229.172 512.001 512.001-0.002 282.761-229.174 512.001-512.001 512.001zM785.068 413.866h-546.134c-18.842 0-34.133 15.36-34.133 34.133 0 18.842 15.291 34.133 34.133 34.133h546.134c18.773 0 34.133-15.291 34.133-34.133 0-18.773-15.36-34.133-34.133-34.133z" />
<glyph unicode="&#xe97f;" glyph-name="link-chain" d="M599.243 298.626l-347.158 347.093c-37.862 37.862-37.862 99.41 0 137.272l51.452 51.517c37.862 37.862 99.41 37.862 137.272 0l347.158-347.093c17.087 64.656 1.036 136.235-49.64 186.912l-228.85 228.783c-75.852 75.852-198.755 75.852-274.607 0l-51.452-51.452c-75.852-75.852-75.852-198.755 0-274.607l228.848-228.85c50.676-50.674 122.258-66.597 186.977-49.575zM840.584 319.012l-228.85 228.722c-50.676 50.676-122.256 66.662-186.912 49.575l347.095-347.093c37.927-37.927 37.927-99.41 0-137.272l-51.452-51.583c-37.927-37.797-99.475-37.797-137.272 0l-347.093 347.223c-17.087-64.721-1.1-136.235 49.575-186.912l228.85-228.785c75.852-75.852 198.69-75.852 274.607 0l51.452 51.583c75.852 75.852 75.852 198.69 0 274.542z" />
<glyph unicode="&#xe980;" glyph-name="linkedin-button" d="M512 960c-282.752 0-512-229.248-512-512s229.248-512 512-512 512 229.248 512 512c0 282.815-229.248 512-512 512zM384 200h-128v448.001h128v-448.001zM323.967 675.456c-33.152 0-59.967 26.88-59.967 60.033s26.88 60.033 59.967 60.033c33.152-0.063 60.033-26.944 60.033-60.033 0-33.152-26.88-60.033-60.033-60.033zM831.999 200h-128v276.992c0 32.449-9.28 55.167-49.152 55.167-66.113 0-78.848-55.167-78.848-55.167v-276.992h-128v448.001h128v-42.815c18.303 14.015 63.999 42.752 128 42.752 41.472 0 128-24.832 128-174.847v-273.091z" />
<glyph unicode="&#xe981;" glyph-name="linkedin-logotype-button" d="M831.999 960h-640c-106.047 0-191.999-85.952-191.999-191.999v-640c0-106.049 85.952-191.999 191.999-191.999h640c106.049 0 191.999 85.952 191.999 191.999v640c0.002 106.047-85.95 191.999-191.999 191.999zM384 200h-128v447.999h128v-447.999zM323.968 675.456c-33.151 0-59.968 26.881-59.968 60.032s26.881 60.032 59.968 60.032c33.151-0.064 60.032-26.943 60.032-60.032 0-33.151-26.881-60.032-60.032-60.032zM831.999 200h-128v276.993c0 32.449-9.279 55.167-49.152 55.167-66.111 0-78.848-55.167-78.848-55.167v-276.993h-128v447.999h128v-42.815c18.304 14.015 63.999 42.753 128 42.753 41.472 0 128-24.833 128-174.848v-273.088z" />
<glyph unicode="&#xe982;" glyph-name="linkedin" d="M65.536 686.933h202.615v-750.933h-202.615v750.933zM683.692 686.864c-74.207 0-111.207-35.361-142.473-59.324v59.393h-203.777v-750.933h203.708v472.745c0 0-7.44 94.14 105.403 94.14 67.993 0 99.396-38.708 99.396-94.14v-472.748h214.699v466.128c0 255.999-206.096 284.739-276.957 284.739zM268.152 857.599c0-56.554-45.846-102.401-102.401-102.401s-102.401 45.846-102.401 102.401c0 56.554 45.846 102.401 102.401 102.401s102.401-45.846 102.401-102.401z" />
</font>
</defs>
</svg>
